<?xml version="1.0" standalone="no"?>
<!DOCTYPE svg PUBLIC "-//W3C//DTD SVG 1.1//EN" "http://www.w3.org/Graphics/SVG/1.1/DTD/svg11.dtd" >
<svg xmlns="http://www.w3.org/2000/svg">
<metadata></metadata>
<defs>
<font id="fbkazefet_regularregular" horiz-adv-x="700" >
<font-face units-per-em="2048" ascent="1638" descent="-410" />
<missing-glyph horiz-adv-x="460" />
<glyph horiz-adv-x="2048" />
<glyph horiz-adv-x="2048" />
<glyph unicode="&#xd;" horiz-adv-x="512" />
<glyph unicode=" "  horiz-adv-x="460" />
<glyph unicode="&#x09;" horiz-adv-x="460" />
<glyph unicode="&#xa0;" horiz-adv-x="460" />
<glyph unicode="!" horiz-adv-x="503" d="M88 86q0 39 30.5 67.5t73.5 28.5t74 -28.5t31 -67.5q0 -41 -31 -69.5t-74 -28.5t-73.5 28.5t-30.5 69.5zM92 993v13q0 108 98 108q99 0 99 -108v-13l-41 -628q-2 -31 -33 -31h-49q-31 0 -33 33z" />
<glyph unicode="&#x22;" horiz-adv-x="632" d="M30 893q0 10 12 25q35 43 60 122q18 68 18 115v41q0 35 33 35h88q33 0 33 -35v-41q0 -82 -43 -168q-45 -92 -121 -141q-8 -6 -17 -6q-10 0 -22 10l-25 16q-16 15 -16 27zM294 893q0 10 12 25q37 43 64 122q25 72 25 115v41q0 35 34 35h86q33 0 33 -35v-41q0 -80 -48 -169 t-126 -140q-8 -6 -16 -6q-11 0 -23 10l-24 16q-17 15 -17 27z" />
<glyph unicode="#" horiz-adv-x="1003" d="M63 240l20 118h175l41 271h-168l20 119h168l43 235h117l-41 -235h221l37 235h121l-43 -235h166l-23 -119h-164l-43 -271h168l-22 -118h-168l-43 -240h-121l43 240h-217l-41 -240h-119l43 240h-170zM372 358h215l47 271h-217z" />
<glyph unicode="$" horiz-adv-x="829" d="M90 106q0 11 10 27l35 57q8 13 23 13q10 0 24 -10q101 -66 182 -66v338q-143 61 -206.5 131t-63.5 170q0 92 79 166t198 74v69q0 33 28 33h29q24 0 24 -33v-71q107 0 213 -62q37 -20 37 -39q0 -8 -6 -18l-39 -49q-14 -23 -24 -23q-8 0 -21 6q-88 53 -160 62v-308 q164 -84 216 -129q88 -77 88 -190q0 -119 -99 -188q-82 -58 -205 -66v-61q0 -33 -24 -33h-27q-37 0 -37 33v61q-131 0 -245 72q-29 20 -29 34zM242 776q0 -104 122 -160v273q-49 0 -85.5 -31t-36.5 -82zM452 121q70 0 112 37t42 90v6q-4 94 -154 172v-305z" />
<glyph unicode="%" horiz-adv-x="1173" d="M104 750q0 249 219 249q107 0 162 -67.5t55 -181.5q0 -101 -60.5 -172.5t-156.5 -71.5q-104 0 -161.5 69.5t-57.5 174.5zM204 18q0 7 4 15l635 925q17 25 56 25h26q35 0 35 -18q0 -9 -8 -19l-631 -919q-18 -27 -37 -27h-65q-15 0 -15 18zM225 750q0 -150 98 -150t98 150 q0 157 -98 157t-98 -157zM630 229q0 248 219 248q107 0 162.5 -67.5t55.5 -180.5q0 -102 -60.5 -173.5t-157.5 -71.5q-102 0 -160.5 69.5t-58.5 175.5zM751 229q0 -151 98 -151q99 0 99 151q0 156 -99 156q-98 0 -98 -156z" />
<glyph unicode="&#x26;" horiz-adv-x="1521" d="M102 238q0 150 119 269q75 75 248 173q-68 139 -68 256q0 130 76 216q79 91 207 91q110 0 179 -57q75 -62 75 -170q0 -195 -287 -324q121 -223 244 -385q172 213 172 338q0 80 -121 88v39h400v-39q-63 -8 -91 -22q-50 -24 -84 -88q-125 -231 -233 -369q149 -174 285 -174 q57 0 97 28q27 18 73 72l26 -22q-20 -84 -107.5 -148.5t-174.5 -64.5q-136 0 -312 172q-182 -172 -405 -172q-141 0 -227 75q-91 79 -91 218zM276 303q0 -107 66 -181q68 -77 174 -77q133 0 260 123q-127 166 -280 446q-220 -131 -220 -311zM549 1018q0 -107 74 -266 q217 126 217 270q0 69 -40 114.5t-108 45.5q-143 0 -143 -164z" />
<glyph unicode="'" horiz-adv-x="337" d="M30 893q0 10 12 25q35 43 60 122q18 68 18 115v41q0 35 33 35h98q33 0 33 -35v-41q0 -80 -48 -169t-126 -140q-8 -6 -17 -6q-10 0 -22 10l-25 16q-16 15 -16 27z" />
<glyph unicode="(" horiz-adv-x="575" d="M104 492q0 372 270 761q19 27 31 27q14 0 31 -10l65 -39q11 -8 11 -21q0 -4 -37 -75q-105 -199 -140 -299q-57 -162 -57 -344q0 -203 68 -383q45 -119 153 -293q15 -25 15 -35t-13 -19l-80 -49q-6 -4 -12 -4q-8 0 -31 27q-274 325 -274 756z" />
<glyph unicode=")" horiz-adv-x="575" d="M61 -217q0 10 16 35q107 174 152 293q68 180 68 383q0 182 -58 344q-35 100 -139 299q-37 71 -37 75q0 13 12 21l66 39q14 10 29 10q12 0 30 -27q271 -381 271 -761q0 -201 -74 -400.5t-201 -355.5q-20 -27 -31 -27q-6 0 -12 4l-78 49q-14 9 -14 19z" />
<glyph unicode="*" horiz-adv-x="768" d="M57 924q0 8 6 18l27 62q6 14 14 14q6 0 19 -6l231 -105l-25 242q-2 22 29 22h66q20 0 20 -18v-8l-33 -236l236 97q12 6 20 6q15 0 21 -21l18 -55q2 -6 2 -12q0 -19 -26 -25l-250 -45l162 -184q16 -21 16 -31t-12 -21l-58 -40q-6 -3 -10 -3q-12 0 -24 23l-125 219 l-123 -219q-11 -18 -25 -18q-8 0 -14 4l-51 37q-9 8 -9 20t9 23l161 188l-254 55q-18 4 -18 17z" />
<glyph unicode="+" horiz-adv-x="786" d="M59 451v84q0 22 23 22h245v240q0 22 25 22h86q22 0 22 -22v-240h244q23 0 23 -22v-84q0 -23 -23 -23h-244v-238q0 -22 -22 -22h-86q-25 0 -25 22v238h-245q-23 0 -23 23z" />
<glyph unicode="," horiz-adv-x="348" d="M10 -160q0 10 10 25q37 43 60 123q20 67 20 114v41q0 35 33 35h98q33 0 33 -35v-41q0 -79 -49 -168.5t-125 -140.5q-10 -6 -17 -6q-10 0 -24 10l-23 17q-16 14 -16 26z" />
<glyph unicode="-" horiz-adv-x="786" d="M88 446v84q0 23 23 23h565q22 0 22 -23v-84q0 -22 -22 -22h-565q-23 0 -23 22z" />
<glyph unicode="." horiz-adv-x="368" d="M83 86q0 39 29.5 67.5t70.5 28.5t71 -28.5t30 -67.5q0 -41 -30 -69.5t-71 -28.5t-70.5 28.5t-29.5 69.5z" />
<glyph unicode="/" horiz-adv-x="667" d="M57 16q0 9 6 23l432 915q15 29 41 29h43q31 0 31 -20q0 -9 -6 -21l-422 -915q-12 -27 -43 -27h-51q-31 0 -31 16z" />
<glyph unicode="0" horiz-adv-x="841" d="M86 487q0 533 328 533q342 0 342 -533q0 -213 -74 -346q-90 -166 -274 -166q-322 0 -322 512zM250 467q0 -379 158 -379q180 0 180 379q0 207 -29 299q-37 129 -145 129q-107 0 -142 -129q-22 -84 -22 -299z" />
<glyph unicode="1" horiz-adv-x="841" d="M131 758q0 8 23 20q167 94 243 197q23 29 51 29h56q45 0 45 -52v-823h157h12h9q18 0 18 -20v-89q0 -20 -18 -20h-9h-12h-507h-14h-9q-20 0 -20 20v89q0 20 20 20h9h14h192v666q-67 -72 -180 -133q-19 -11 -35 16l-29 53q-16 29 -16 27z" />
<glyph unicode="2" horiz-adv-x="841" d="M79 27v20q0 107 90 229q82 117 221 222q160 118 160 239q0 70 -42 114t-122 44q-104 0 -157 -90q-11 -17 -21 -17q-8 0 -23 7l-79 41q-13 6 -13 20q0 10 9 23q96 141 301 141q155 0 235 -84q72 -72 72 -191q0 -176 -242 -352q-194 -143 -229 -264h469q30 0 30 -27v-75 q0 -27 -30 -27h-596q-33 0 -33 27z" />
<glyph unicode="3" horiz-adv-x="841" d="M59 143q0 7 14 17l62 43q12 8 18 8q8 0 19 -12q41 -47 67 -64q53 -33 146 -33q123 0 178 70q37 45 37 102q0 195 -224 195h-67q-25 0 -25 25v67q0 27 29 27h86q72 0 120 42t48 109q0 62 -37 105q-45 49 -129 49q-109 0 -164 -49q-14 -13 -22 -13q-13 0 -21 9l-55 55 q-10 10 -10 16q0 17 12 27q96 82 287 82q135 0 214 -71.5t79 -192.5q0 -154 -168 -217q98 -19 153 -89.5t55 -166.5q0 -121 -92 -207q-104 -99 -278 -99q-123 0 -197 32t-127 116q-8 12 -8 18z" />
<glyph unicode="4" horiz-adv-x="841" d="M65 244v59q0 27 25 72l337 606q15 23 37 23h107q18 0 18 -15q0 -10 -10 -28l-344 -619h256v182q0 39 33 39h86q35 0 35 -49v-172h96q43 0 43 -33v-65q0 -31 -43 -31h-96v-180q0 -35 -33 -35h-92q-29 0 -29 35v180h-395q-31 0 -31 31z" />
<glyph unicode="5" horiz-adv-x="841" d="M69 154q0 4 8 10l72 51q10 6 14 6q6 0 19 -12q57 -59 77 -74q52 -33 134 -33t141 52q67 59 67 159q0 109 -61 168q-53 54 -139 54q-99 0 -158 -66q-20 -25 -41 -25q-6 0 -14 2l-68 17q-22 4 -22 20q0 4 2 19l59 452q4 29 33 29h457q20 0 20 -20v-82q0 -21 -20 -21h-5 h-342l-36 -266q61 63 172 63q145 0 235 -90t90 -229q0 -166 -110 -266q-101 -92 -250 -92q-217 0 -326 155q-8 12 -8 19z" />
<glyph unicode="6" horiz-adv-x="841" d="M86 416q0 280 106.5 443t282.5 163q119 0 191 -47q18 -12 18 -21q0 -6 -6 -18l-33 -66q-10 -22 -24 -22q-9 0 -21 8q-57 39 -133 39q-188 0 -215 -322q31 39 94 64q47 18 72 18q155 0 246.5 -88t91.5 -231q0 -146 -80 -244q-88 -110 -240 -110q-350 0 -350 434zM248 319 q0 -100 51 -157.5t131 -57.5q66 0 117 60.5t51 159.5q0 92 -48 153.5t-120 61.5q-76 0 -129 -59.5t-53 -160.5z" />
<glyph unicode="7" horiz-adv-x="841" d="M81 909v66q0 29 35 29h633q20 0 20 -29q0 -6 -10 -31l-395 -915q-13 -29 -37 -29h-105q-32 0 -32 18q0 9 4 21l383 842h-461q-35 0 -35 28z" />
<glyph unicode="8" horiz-adv-x="841" d="M75 281q0 73 41 141q51 84 149 119q-61 16 -103 79.5t-42 127.5q0 137 82 208.5t219 71.5q127 0 209 -67q88 -74 88 -197q0 -156 -147 -225q196 -68 196 -258q0 -134 -98 -220t-248 -86q-160 0 -253 84t-93 222zM227 279q0 -72 41 -121q51 -60 149 -60q104 0 156 60 q41 47 41 121q0 75 -41 127q-54 65 -156 65q-100 0 -152 -70q-38 -51 -38 -122zM257 750q0 -70 43 -117t117 -47q78 0 119 46t41 118q0 61 -33 102q-41 53 -127 53t-127 -57q-33 -43 -33 -98z" />
<glyph unicode="9" horiz-adv-x="841" d="M86 664q0 145 82 243q88 111 237 111q177 0 267 -129q84 -119 84 -326q0 -272 -113 -429t-297 -157q-121 0 -188 46q-19 12 -19 22q0 4 6 16l33 64q10 22 25 22q8 0 20 -8q49 -33 121 -33q217 0 238 308q-27 -31 -105 -54q-57 -16 -86 -16q-133 0 -219 89t-86 231z M244 678q0 -92 51 -154.5t125 -62.5q174 0 174 198q0 101 -54.5 168.5t-134.5 67.5q-65 0 -113 -59.5t-48 -157.5z" />
<glyph unicode=":" horiz-adv-x="432" d="M104 86q0 39 29.5 67.5t70.5 28.5q43 0 72 -28.5t29 -67.5q0 -41 -29 -69.5t-72 -28.5q-41 0 -70.5 28.5t-29.5 69.5zM104 700q0 41 29.5 70t70.5 29q43 0 72 -29t29 -70q0 -38 -29 -67t-72 -29q-41 0 -70.5 29t-29.5 67z" />
<glyph unicode=";" horiz-adv-x="419" d="M30 -160q0 10 12 25q35 43 60 123q18 67 18 114v41q0 35 33 35h98q33 0 33 -35v-41q0 -79 -48 -168.5t-126 -140.5q-8 -6 -17 -6q-10 0 -22 10l-25 17q-16 14 -16 26zM93 700q0 41 29 70t72 29q41 0 70.5 -29t29.5 -70q0 -38 -29.5 -67t-70.5 -29q-43 0 -72 29t-29 67z " />
<glyph unicode="&#x3c;" horiz-adv-x="786" d="M69 492v4q-2 22 33 43l540 317q9 4 15 4q14 0 20 -10l37 -74q2 -4 2 -8q0 -16 -12 -23l-442 -247l442 -252q14 -8 14 -21q0 -4 -2 -8l-39 -80q-8 -14 -16 -14q-6 0 -16 6l-543 324q-27 16 -33 39z" />
<glyph unicode="=" horiz-adv-x="786" d="M88 311v82q0 23 23 23h565q22 0 22 -23v-82q0 -22 -22 -22h-565q-23 0 -23 22zM88 612v82q0 23 23 23h565q22 0 22 -23v-82q0 -24 -22 -24h-565q-23 0 -23 24z" />
<glyph unicode="&#x3e;" horiz-adv-x="786" d="M67 225q0 13 14 21l443 252l-443 247q-12 7 -12 23q0 4 2 8l37 76q6 10 20 10q7 0 15 -4l540 -319q31 -19 31 -45q0 -23 -31 -41l-540 -322q-10 -6 -17 -6q-8 0 -16 14l-41 78q-2 4 -2 8z" />
<glyph unicode="?" horiz-adv-x="915" d="M61 915q0 7 4 17q82 196 322 196q161 0 254 -94q77 -80 77 -190q0 -154 -178 -295q-127 -100 -127 -178v-11q0 -26 -18 -26h-10h-62q-26 0 -26 37v14q0 150 137 252q121 88 121 197q0 167 -179 167q-131 0 -180 -122q-8 -17 -20 -17q-9 0 -15 4l-84 35q-16 6 -16 14z M249 86q0 39 31 67.5t74 28.5t73.5 -28.5t30.5 -67.5q0 -41 -30.5 -69.5t-73.5 -28.5t-74 28.5t-31 69.5z" />
<glyph unicode="@" horiz-adv-x="1697" d="M165 567q0 295 235 494q222 184 525 184q237 0 407 -129q185 -141 185 -375q0 -166 -103 -315q-112 -168 -272 -168q-70 0 -121 39t-53 109q-23 -62 -84.5 -105t-124.5 -43q-109 0 -175.5 72.5t-66.5 181.5q0 150 116 279t261 129q135 0 168 -113q53 90 139 94 q29 2 29 -24q0 -7 -2 -15l-39 -119q-90 -282 -90 -340q0 -30 23.5 -53.5t54.5 -23.5q118 0 202 153q70 131 70 260q0 203 -160 324q-145 113 -356 113q-254 0 -447 -175q-196 -180 -196 -432q0 -245 176 -393q164 -137 414 -137q86 0 188 24q133 33 266 121q15 11 27 11 q27 0 27 -27q0 -21 -19 -35q-115 -80 -256 -123q-119 -37 -260 -37q-270 0 -471 160q-217 170 -217 434zM675 451q0 -127 110 -127q99 0 175 170q63 143 63 258q0 100 -100 100q-101 0 -181 -156q-67 -133 -67 -245z" />
<glyph unicode="A" horiz-adv-x="1267" d="M20 14q-2 17 11 19q82 12 137 112l76 174l354 834q12 23 31 23q16 0 26 -23l426 -967q43 -98 70 -121.5t78 -31.5q12 -2 12 -19q0 -14 -12 -14h-436q-13 0 -15 14q0 17 15 19q43 4 100 14q20 10 20 49q0 37 -32 115l-72 168h-461q-94 -238 -94 -270q0 -46 37 -62 q6 -4 84 -14q12 -2 12 -19q2 -14 -12 -14h-344q-11 0 -11 14zM381 451h403l-190 452q-3 10 -11 10h-3q-9 0 -13 -10z" />
<glyph unicode="B" horiz-adv-x="1171" d="M38 1137q0 22 31 22h452q459 0 459 -301q0 -123 -86 -188q-49 -35 -147 -60q292 -69 292 -288q0 -322 -438 -322h-532q-27 0 -27 18q0 23 27 23q63 2 96 30.5t33 129.5v755q0 97 -31 125q-21 19 -31 23q-20 8 -67 10q-31 0 -31 23zM376 135q0 -53 49 -67q20 -5 96 -5 q318 0 318 252q0 254 -379 254h-51q-7 0 -33 2v-436zM376 639l168 2q258 2 258 211q0 158 -129 213q-70 29 -215 29q-51 0 -64 -7q-18 -10 -18 -55v-393z" />
<glyph unicode="C" horiz-adv-x="1171" d="M43 567q0 256 164 430q170 183 481 183q209 0 309 -60q74 -43 80 -151l13 -183q0 -24 -27 -24q-25 0 -35 24q-33 82 -43 105q-22 53 -47 84q-109 135 -272 135q-209 0 -322 -176q-96 -148 -96 -371q0 -213 108 -356q119 -158 326 -158q137 0 252 66q90 51 145 112 q11 13 23 13q18 0 18 -23q0 -10 -10 -22q-49 -70 -143 -129q-148 -95 -322 -95q-268 0 -435 165t-167 431z" />
<glyph unicode="D" horiz-adv-x="1267" d="M22 1137q0 22 30 22h449q311 0 493 -131q209 -149 209 -453q0 -129 -53 -247q-150 -328 -635 -328h-463q-26 0 -26 18q0 23 26 23q64 2 96.5 30.5t32.5 129.5v755q0 97 -30 125q-21 19 -31 23q-21 8 -68 10q-30 0 -30 23zM359 135q0 -47 33 -61q19 -8 76 -8 q256 0 395 120q148 131 148 387q0 254 -147.5 387.5t-401.5 133.5q-55 0 -74 -9q-29 -12 -29 -61v-889z" />
<glyph unicode="E" horiz-adv-x="1073" d="M32 18q0 21 26 25q56 10 85.5 34.5t29.5 123.5v755q0 95 -29 123q-20 21 -86 35q-22 4 -22 29q0 16 22 16h748q65 0 92 4q10 2 17 2q34 0 34 -39l8 -219q3 -24 -16 -24q-20 0 -29 24q-16 47 -30 94q-17 41 -35 58q-45 33 -201 33h-237q-35 0 -46.5 -11.5t-11.5 -48.5 v-391h271q112 0 143 35q25 24 49 115q8 26 25 26q16 0 16 -26v-359q0 -24 -16 -24q-19 0 -25 18q-24 88 -49 115q-31 32 -143 32h-271v-434q0 -63 92 -73h-3q0 2 143 2q178 0 264 38q70 33 151 191q9 14 23 14q24 0 24 -21q0 -6 -2 -14l-51 -204q-18 -72 -104 -72h-830 q-26 0 -26 18zM538 1159z" />
<glyph unicode="F" horiz-adv-x="976" d="M16 16q0 19 27 23q76 14 103.5 36.5t27.5 123.5v757q0 95 -29 123q-14 17 -106 35q-21 4 -21 29q0 16 21 16h772q63 0 92 4q10 2 17 2q34 0 34 -39l9 -219q0 -24 -19 -24q-18 0 -26 24q-17 47 -31 94q-17 41 -35 58q-45 33 -201 33h-241q-35 0 -46.5 -11.5t-11.5 -48.5 v-391h252q113 0 144 35q22 24 49 115q8 26 22 26q19 0 19 -26v-359q0 -24 -17 -24q-18 0 -24 18q-25 86 -53.5 116.5t-139.5 30.5h-252v-374q0 -101 31 -125q25 -21 100 -35q27 -4 27 -23q0 -16 -27 -16h-440q-27 0 -27 16zM539 1159z" />
<glyph unicode="G" horiz-adv-x="1267" d="M43 567q0 246 154 420q170 193 473 193q227 0 342 -70q69 -43 75 -141l13 -183q0 -24 -25 -24q-20 0 -31 24q-57 146 -94 195q-96 129 -274 129q-219 0 -332 -172q-94 -145 -94 -377q0 -217 110 -358q121 -156 332 -156q49 0 123 16q86 19 113 43q14 15 14 46v233 q0 100 -28.5 125t-106.5 31q-21 2 -21 20q0 21 21 21h410q16 0 16 -21q0 -18 -16 -20q-46 -4 -68 -23q-37 -26 -37 -112v-238q0 -96 -180 -152q-135 -41 -262 -41q-271 0 -445 160q-182 166 -182 432z" />
<glyph unicode="H" horiz-adv-x="1267" d="M26 16q0 19 26 23q76 14 102.5 36.5t26.5 102.5v803q0 82 -26.5 104.5t-102.5 34.5q-26 6 -26 23q0 16 26 16h441q26 0 26 -16q0 -17 -26 -23q-76 -12 -105 -36.5t-29 -102.5v-352h533v352q0 84 -25.5 105.5t-103.5 33.5q-27 6 -27 23q0 16 27 16h442q27 0 27 -16 q0 -17 -27 -23q-78 -12 -102 -35q-31 -24 -31 -104v-803q0 -78 31 -104q24 -21 102 -35q27 -4 27 -23q0 -16 -27 -16h-442q-27 0 -27 16q0 19 27 23q78 14 103.5 35.5t25.5 103.5v373h-533v-373q0 -78 29 -101.5t105 -37.5q26 -4 26 -23q0 -16 -26 -16h-441q-26 0 -26 16z " />
<glyph unicode="I" horiz-adv-x="585" d="M28 16q0 19 26 23q95 16 115 35q29 22 29 104v803q0 82 -29 104q-20 19 -115 35q-26 6 -26 23q0 16 26 16h463q29 0 29 -16q0 -17 -29 -23q-86 -14 -108 -35q-31 -26 -31 -104v-803q0 -78 31 -104q22 -21 108 -35q29 -4 29 -23q0 -16 -29 -16h-463q-26 0 -26 16z" />
<glyph unicode="J" horiz-adv-x="684" d="M18 100q0 88 82 88q54 0 88.5 -72.5t59.5 -72.5q61 0 61 133v805q0 82 -25.5 102.5t-117.5 36.5q-29 6 -29 23q0 16 29 16h465q26 0 26 -16q0 -17 -26 -23q-88 -14 -111 -35q-33 -26 -33 -104v-655q0 -152 -71 -244q-78 -102 -223 -102q-64 0 -115 28q-60 33 -60 92z" />
<glyph unicode="K" horiz-adv-x="1267" d="M20 16q0 19 27 23q94 16 118.5 36.5t24.5 102.5v803q0 82 -24.5 102.5t-118.5 36.5q-27 6 -27 23q0 16 27 16h465q27 0 27 -16q0 -17 -27 -23q-88 -14 -111 -35q-30 -24 -30 -104v-371q108 78 372 346q78 80 78 121q0 39 -116 47q-27 2 -27 19q0 16 27 16h425 q27 0 27 -16q0 -17 -27 -23q-92 -14 -135 -43q-37 -20 -174 -162q-110 -114 -264 -256l461 -491q35 -37 102 -96q27 -21 94 -33q27 -4 27 -23q0 -16 -27 -16h-485q-27 0 -27 16q0 19 27 21q102 4 102 41q0 39 -59 102l-344 375l-57 -37v-340q0 -78 30 -104q23 -21 111 -35 q27 -4 27 -23q0 -16 -27 -16h-465q-27 0 -27 16z" />
<glyph unicode="L" horiz-adv-x="1073" d="M18 16q0 19 27 23q76 14 102.5 36.5t26.5 102.5v803q0 82 -26.5 104.5t-102.5 34.5q-27 6 -27 23q0 16 27 16h451q26 0 26 -16q0 -17 -26 -23q-86 -14 -111 -35q-33 -26 -33 -104v-842q0 -59 54 -65q38 -6 124 -6q218 0 289 28q105 43 187 207q12 25 26 25q20 0 20 -21 q0 -8 -3 -18l-68 -234q-16 -55 -70 -55h-866q-27 0 -27 16z" />
<glyph unicode="M" horiz-adv-x="1560" d="M8 16q0 19 27 23q94 16 117 35q38 32 38 168v727q0 86 -29.5 114.5t-117.5 34.5q-18 2 -18 21q0 20 18 20h279q49 0 77 -63l365 -789q14 -33 29 2l346 787q26 63 80 63h276q14 0 16 -18q2 -21 -16 -23q-82 -12 -104 -35q-29 -30 -29 -114v-791q0 -76 33 -104 q24 -21 102 -35q29 -4 29 -23q0 -16 -29 -16h-453q-26 0 -26 16q0 19 26 23q86 14 113 36.5t27 102.5l-2 819l-424 -946q-15 -31 -37 -31q-21 0 -33 27l-422 909v-714q0 -129 45 -168q25 -21 111 -35q27 -4 27 -23q0 -16 -27 -16h-387q-27 0 -27 16z" />
<glyph unicode="N" horiz-adv-x="1267" d="M8 16q0 19 27 23q94 16 117 35q38 32 38 168v778q0 12 -24 39q-16 16 -55 45q-27 10 -68 14q-18 2 -18 21q0 20 18 20h240q39 0 77 -49l619 -770q18 -23 18 2v596q0 111 -45 147q-20 19 -108 35q-27 4 -27 23q0 16 27 16h385q26 0 26 -16q0 -19 -26 -23q-94 -16 -117 -35 q-39 -32 -39 -147v-915q0 -29 -24 -29q-17 0 -27 14l-735 907q-21 25 -21 -4v-669q0 -129 45 -168q25 -21 111 -35q27 -4 27 -23q0 -16 -27 -16h-387q-27 0 -27 16z" />
<glyph unicode="O" horiz-adv-x="1267" d="M51 580q0 260 159 432t419 172q258 0 415.5 -172t157.5 -432q0 -261 -155 -430q-162 -175 -418 -175q-258 0 -418 172t-160 433zM252 580q0 -218 78 -361q98 -180 299 -180q200 0 297 180q78 141 78 361q0 219 -78 360q-97 180 -297 180q-201 0 -299 -180 q-78 -143 -78 -360zM629 1184z" />
<glyph unicode="P" horiz-adv-x="976" d="M18 1143q0 16 21 16h453q182 0 305 -65q153 -82 153 -248q0 -184 -143 -273q-111 -67 -315 -67h-70q-45 2 -70 2v-309q0 -101 31 -125q23 -21 106 -35q27 -4 27 -23q0 -16 -27 -16h-440q-26 0 -26 16q0 19 26 23q70 12 99.5 37.5t29.5 122.5v757q0 91 -33 123 q-14 17 -106 35q-21 4 -21 29zM352 580q68 -7 90 -7q125 0 193 33q125 66 125 234q0 254 -328 254q-47 0 -59 -7q-21 -12 -21 -53v-454z" />
<glyph unicode="Q" horiz-adv-x="1267" d="M51 580q0 260 159 432t419 172q256 0 418 -174q155 -170 155 -430q0 -232 -117 -385q-122 -162 -346 -205q107 -154 256 -217q80 -33 191 -33q24 0 24 -27q0 -24 -24 -24h-33q-412 0 -618 221q-78 82 -86 86l-23 10q-141 66 -225 154q-150 162 -150 420zM252 580 q0 -218 78 -361q98 -180 299 -180q200 0 297 180q78 141 78 361q0 219 -78 360q-97 180 -297 180q-201 0 -299 -180q-78 -143 -78 -360z" />
<glyph unicode="R" horiz-adv-x="1171" d="M18 1143q0 16 21 16h467q444 0 444 -307q0 -246 -315 -293l360 -444q21 -27 68 -52q31 -18 65 -24q23 -4 23 -23q0 -16 -23 -16h-174q-96 0 -166 90l-342 449l-98 -4v-336q0 -101 31 -125q22 -21 106 -35q27 -4 27 -23q0 -16 -27 -16h-436q-26 0 -26 16q0 19 26 23 q80 14 100.5 43t20.5 117v757q0 97 -27 123q-16 17 -104 35q-21 4 -21 29zM348 598q191 8 273 41q139 57 139 215q0 238 -303 238q-62 0 -76 -5q-33 -10 -33 -57v-432z" />
<glyph unicode="S" horiz-adv-x="976" d="M92 336q-1 4 -1 7q0 24 24 24q20 0 26 -15q47 -125 115 -211q76 -98 221 -98q92 0 149.5 55.5t57.5 145.5q0 86 -61 147q-39 41 -170 121l-150 92q-182 115 -182 270q0 134 88 222t254 88q188 0 270 -64q64 -49 70 -121l18 -188q4 -27 -24 -27q-25 0 -31 19 q-55 182 -143 244q-95 65 -168 65q-74 0 -126.5 -43t-52.5 -117q0 -112 168 -217l154 -94q129 -80 182 -137q82 -90 82 -205q0 -137 -104.5 -229.5t-286.5 -92.5q-131 0 -270 37q-62 19 -74 107z" />
<glyph unicode="T" horiz-adv-x="1073" d="M26 889l6 237q2 39 36 39q8 0 17 -2q27 -4 90 -4h707q65 0 92 4q10 2 17 2q34 0 34 -39l8 -237q0 -25 -18 -25q-17 0 -27 25q-45 133 -87 164.5t-177 31.5h-51q-35 0 -45.5 -11t-10.5 -48v-827q0 -101 29 -125q21 -17 125 -35q27 -4 27 -23q0 -16 -27 -16h-479 q-29 0 -29 16q0 19 29 23q100 18 121 35q28 24 28 125v827q0 37 -10 48t-47 11h-49q-135 0 -177 -31.5t-87 -164.5q-11 -25 -29 -25t-16 25z" />
<glyph unicode="U" horiz-adv-x="1267" d="M26 1143q0 16 26 16h441q26 0 26 -16q0 -17 -26 -23q-76 -12 -105 -36.5t-29 -102.5v-571q0 -357 306 -357q215 0 288 146q41 80 41 245v422q0 189 -37 219q-24 23 -102 35q-27 6 -27 23q0 16 27 16h358q27 0 27 -16q0 -17 -27 -23q-77 -12 -104 -35q-37 -30 -37 -219 v-422q0 -180 -55 -282q-105 -187 -391 -187q-445 0 -445 447v559q0 82 -26.5 104.5t-102.5 34.5q-26 6 -26 23z" />
<glyph unicode="V" horiz-adv-x="1267" d="M24 1139q0 20 18 20h440q15 0 17 -18q0 -19 -15 -21q-55 -8 -71 -12q-35 -10 -41 -25q-7 -12 -7 -29q0 -26 17 -61l326 -731l278 737q7 17 7 34q0 25 -15 52q-12 23 -92 35q-15 2 -15 21q0 18 17 18h311q21 0 21 -20q0 -15 -17 -21q-37 -14 -57 -28q-47 -35 -74 -103 l-391 -987q-6 -14 -23 -14h-3q-13 0 -21 14l-459 1016q-29 61 -61 82q-23 12 -72 20q-18 2 -18 21z" />
<glyph unicode="W" horiz-adv-x="1656" d="M8 1139q0 20 19 20h393q14 0 16 -18q0 -19 -12 -21q-49 -8 -64 -12q-24 -6 -30 -18q-5 -10 -5 -26q0 -28 17 -71l256 -659l184 487q0 25 -77 201q-27 59 -66 80q-16 8 -76 16q-16 2 -16 21q0 20 16 20h441q16 0 16 -18q2 -19 -12 -21q-56 -8 -72 -12q-35 -10 -41 -25 q-6 -13 -6 -31q0 -25 12 -59l260 -669l248 675q5 14 5 30q0 26 -15 56q-13 23 -92 35q-15 2 -15 21q0 18 15 18h313q18 0 18 -20q0 -15 -16 -21q-29 -10 -59 -20q-52 -29 -74 -97l-348 -1001q-6 -18 -21 -18q-12 0 -18 18l-277 717l-266 -717q-6 -18 -18 -18q-13 0 -21 18 l-338 934q-61 170 -155 184q-19 2 -19 21z" />
<glyph unicode="X" horiz-adv-x="1267" d="M24 18q0 17 16 23q27 4 80 27q45 28 141 149l285 350l-254 369q-80 115 -143 154q-33 20 -95 28q-18 2 -18 21q0 20 18 20h502q14 0 16 -18q0 -19 -14 -21q-35 -6 -71.5 -12t-43.5 -21q-7 -16 -7 -33q0 -30 22 -61l198 -284l220 258q45 53 45 92q0 35 -37 49 q-11 2 -68 12q-14 2 -14 21q0 18 14 18h383q21 0 21 -20q0 -15 -17 -21h-6q-24 0 -84 -12q-51 -23 -123 -111l-284 -352l284 -414q80 -116 139 -157q35 -25 91 -31q18 -4 18 -21q0 -20 -18 -20h-494q-14 0 -16 18q0 19 14 21l74 12t43 21q4 9 4 20q0 35 -39 94l-217 318 l-244 -307q-43 -56 -43 -97q0 -37 35 -49q8 -2 68 -12q14 -2 14 -21q0 -18 -17 -18h-360q-18 0 -18 18z" />
<glyph unicode="Y" horiz-adv-x="1267" d="M36 1139q0 20 18 20h465q15 0 17 -18q0 -19 -15 -21q-59 -10 -65 -10q-29 -8 -35 -23q-8 -17 -8 -35q0 -28 20 -59l260 -385l230 359q41 65 41 96q0 33 -39 45q-8 4 -64 12q-14 2 -14 21q0 18 14 18h355q20 0 20 -20q0 -17 -16 -21q-121 -33 -195 -141l-295 -447v-331 q0 -105 22.5 -123.5t129.5 -36.5q26 -4 26 -23q0 -16 -26 -16h-482q-26 0 -26 16q0 19 26 23q101 18 121 35q31 24 31 125v315l-289 422q-80 117 -129 154q-29 20 -80 28q-18 2 -18 21z" />
<glyph unicode="Z" horiz-adv-x="1073" d="M30 29q0 14 12 30l739 1033h-424q-125 0 -172 -52q-55 -59 -77 -153q-7 -25 -31 -25q-21 0 -19 29l25 213q6 53 59 53h815q37 0 37 -33q0 -12 -6 -22l-733 -1034h408q182 0 239 53q66 57 98 178q7 25 27 25q17 0 17 -22q0 -5 -1 -11l-30 -236q-8 -55 -78 -55h-868 q-37 0 -37 29z" />
<glyph unicode="[" horiz-adv-x="604" d="M131 -377v1739q0 22 25 22h381q24 0 24 -20v-88q0 -23 -24 -23h-240v-1517h240q24 0 24 -23v-90q0 -22 -24 -22h-386q-20 0 -20 22z" />
<glyph unicode="\" horiz-adv-x="800" d="M16 1153q0 25 31 8l82 -45q22 -12 32 -35l576 -1218q6 -13 2 -21q-6 -8 -16 -4l-99 45q-22 11 -30 29l-574 1227q-4 8 -4 14z" />
<glyph unicode="]" horiz-adv-x="604" d="M43 -287q0 23 25 23h239v1517h-239q-25 0 -25 23v88q0 20 25 20h381q24 0 24 -22v-1739q0 -22 -20 -22h-385q-25 0 -25 22v90z" />
<glyph unicode="^" horiz-adv-x="960" d="M65 467l366 758q17 35 47 35q31 0 47 -35l367 -758h-137l-275 582l-278 -582h-137z" />
<glyph unicode="_" horiz-adv-x="1024" d="M0 -139h1024v-90h-1024v90z" />
<glyph unicode="`" horiz-adv-x="682" d="M118 1390h223l106 -345l-55 -9z" />
<glyph unicode="a" horiz-adv-x="968" d="M80 203q0 147 156 243q94 60 391 166v86q0 103 -23 144q-35 67 -149 67q-56 0 -99 -22q-55 -29 -55 -78q0 -14 5 -40t5 -40q0 -90 -92 -90q-41 0 -69.5 26.5t-28.5 67.5q0 111 133 174q108 54 229 54q207 0 281 -130q39 -69 39 -202v-406q0 -59 8 -82q14 -39 57 -39 q35 0 56 13q12 8 22 8q17 0 17 -17q0 -14 -15 -30q-22 -27 -57 -49q-60 -39 -121 -39q-133 0 -141 151q-187 -153 -324 -153q-94 0 -159.5 61.5t-65.5 155.5zM270 270q0 -69 43 -116.5t113 -47.5q66 0 127 33q74 41 74 101v321q-357 -112 -357 -291zM485 961z" />
<glyph unicode="b" horiz-adv-x="1036" d="M31 1120q-1 2 -1 5q0 7 5 10q90 51 137 86q33 22 92 69q8 6 15 6q5 0 10 -2q12 -6 12 -18v-471q92 115 289 115q158 0 267.5 -123t109.5 -338q0 -223 -126 -350t-343 -127q-150 0 -262.5 44t-112.5 85v981q0 24 -43 22q-17 0 -35 -2q-12 -2 -14 8zM297 158q8 -52 80 -74 q53 -16 112 -16q132 0 209 90q86 98 86 288q0 203 -86 295q-75 84 -194 84q-105 0 -160 -61q-47 -53 -47 -137v-469z" />
<glyph unicode="c" horiz-adv-x="940" d="M49 430q0 207 135 351.5t342 144.5q103 0 199 -49q119 -60 119 -152q0 -88 -99 -88q-79 0 -104 90l-10 47q-25 94 -137 94q-136 0 -213 -114q-68 -101 -68 -242q0 -154 86 -264q94 -119 246 -119q86 0 170 61q71 54 108 125q13 23 29 23q22 0 22 -25q0 -6 -2 -14 q-53 -137 -157 -223q-115 -94 -256 -94q-185 0 -299 135q-111 127 -111 313z" />
<glyph unicode="d" horiz-adv-x="1058" d="M63 455q0 225 103 340q110 125 272 125q178 0 283 -97v269q0 24 -45 22q-14 0 -35 -2q-12 -2 -14 8t4 15q92 51 139 86q29 20 84 69q6 6 14 6q4 0 9 -2q14 -6 14 -18v-1098q0 -80 82 -80q33 0 51 15q12 6 23 6q16 0 16 -17q0 -12 -12 -28q-21 -25 -58 -47 q-57 -39 -137 -39q-106 0 -133 100q-82 -108 -246 -108q-207 0 -307 129q-107 141 -107 346zM244 442q0 -229 112 -321q66 -53 168 -53q142 0 195 131v456q0 82 -63.5 126t-139.5 44q-113 0 -192.5 -86t-79.5 -297z" />
<glyph unicode="e" horiz-adv-x="940" d="M41 436q0 203 121 344.5t323 141.5q146 0 252.5 -93.5t106.5 -187.5q0 -86 -101 -86h-550q8 -182 83 -297q91 -139 259 -139q172 0 296 172q17 20 33 20q21 0 21 -17q0 -11 -8 -28q-60 -127 -176.5 -209t-251.5 -82q-189 0 -302 140q-106 131 -106 321zM199 616h376 q56 0 56 47q0 9 -2 19q-37 168 -203 168q-100 0 -164 -74q-53 -63 -63 -160zM471 922z" />
<glyph unicode="f" horiz-adv-x="749" d="M18 14q2 17 17 19q133 16 155.5 46t22.5 107v613h-82q-72 0 -111 43q-4 4 -4 9q0 3 2 7q5 10 13 10h182q0 154 27 213q71 166 268 166q90 0 164 -35q65 -32 65 -96q0 -33 -18 -53q-25 -27 -62 -27q-30 0 -51 19q-16 12 -47 61q-27 74 -90 74q-82 0 -82 -158v-164h244 q6 0 10 -10q2 -10 -2 -16q-41 -43 -111 -43h-139v-613q0 -98 37 -120q18 -15 143 -31q21 -4 21 -19q0 -16 -21 -16h-534q-17 0 -17 14z" />
<glyph unicode="g" horiz-adv-x="1058" d="M55 -236q0 117 211 240q-51 19 -71 35q-52 37 -52 80q0 102 199 211q-92 28 -145.5 103t-53.5 171q0 144 115 236q109 86 254 86q59 0 169 -34t173 -34q20 0 63.5 2t63.5 2h14q11 0 15 -12q1 -3 1 -7q0 -9 -7 -20q-37 -41 -103 -41h-86q47 -102 47 -180q0 -135 -114 -221 q-105 -78 -246 -78q-33 0 -94 8q-31 0 -79 -48t-48 -79q0 -55 178 -55q262 0 360 -29q156 -47 156 -198q0 -162 -203 -260q-166 -80 -348 -80q-117 0 -225 43q-144 57 -144 159zM209 -182q0 -146 319 -146q129 0 238 39q149 51 149 158q0 65 -86 88q-34 8 -284 16 q-27 0 -78 2q-23 2 -74 9q-16 2 -51 8q-53 -25 -93 -80t-40 -94zM330 690q-8 -40 -8 -78q0 -68 24 -131q41 -116 146 -135q19 -3 36 -3q121 0 152 167q8 45 8 87q0 68 -20 130q-41 125 -146 143q-18 2 -33 2q-129 0 -159 -182zM530 926z" />
<glyph unicode="h" horiz-adv-x="1058" d="M20 14q0 17 17 19q69 8 96 45q23 26 23 108v906q0 24 -43 22q-15 0 -35 -2q-12 -2 -15 8q-2 10 5 15q92 51 138 84.5t87 70.5q6 6 14 6q5 0 10 -2q13 -6 13 -18v-496q135 125 293 125q127 0 202.5 -89t75.5 -230v-400q0 -98 35 -120q16 -13 82 -31q18 -4 18 -19 q0 -16 -18 -16h-420q-16 0 -16 14q0 17 16 19q86 10 111 51q16 31 16 102v398q0 98 -46 155.5t-132 57.5q-105 0 -213 -109v-502q0 -100 34.5 -122.5t88.5 -28.5q18 -4 18 -19q0 -16 -18 -16h-420q-17 0 -17 14z" />
<glyph unicode="i" horiz-adv-x="608" d="M59 813q0 35 91 72q81 35 120 35q138 0 138 -154v-610q0 -39 8 -54q12 -20 53 -20q33 0 53 12q10 8 21 8q18 0 18 -16q0 -12 -14 -29q-23 -26 -55 -49q-60 -37 -136 -37q-125 0 -125 158v602q0 88 -67 88q-21 0 -39 -8q-41 -16 -45 -16q-21 0 -21 18zM176 1139 q0 45 32 73.5t77 28.5q43 0 74.5 -28.5t31.5 -73.5q0 -43 -31.5 -73t-74.5 -30q-45 0 -77 30t-32 73z" />
<glyph unicode="j" horiz-adv-x="587" d="M-123 -332q0 35 25.5 58.5t60.5 23.5q49 0 105.5 -61.5t89.5 -61.5q65 0 88 72q14 41 14 143q2 68 2 181v708q0 88 -84 88q-20 0 -41 -8q-39 -16 -47 -16q-18 0 -18 18q0 35 90 72q82 35 123 35q149 0 149 -154v-766q0 -170 -45 -264q-82 -176 -315 -176q-68 0 -123 22 q-74 29 -74 86zM213 1139q0 45 31.5 73.5t77.5 28.5q45 0 75.5 -28.5t30.5 -73.5q0 -43 -30.5 -73t-75.5 -30q-43 0 -76 30t-33 73z" />
<glyph unicode="k" horiz-adv-x="1058" d="M4 14q2 17 16 19q105 12 127 51q19 31 19 102v854q0 80 -23.5 111t-81.5 43q-14 4 -16 18q0 15 16 15h379q21 0 21 -17q0 -14 -21 -18q-28 -8 -64 -31.5t-36 -120.5v-477q0 -35 31 -10l262 219q24 23 37.5 42.5t7.5 33.5q-12 24 -90 24q-15 0 -15 17q-2 14 15 14h397 q19 0 19 -16q0 -15 -19 -17q-90 -8 -129 -22q-68 -27 -168 -111l-201 -170l299 -364q70 -84 146 -133q22 -15 35 -21q22 -8 73 -14q19 -4 19 -19q0 -16 -19 -16h-428q-16 0 -16 16q2 15 16 15q43 0 68 18q3 2 3 7q0 15 -30 53l-313 389v-312q0 -98 37 -120q18 -13 34.5 -19 t69.5 -12q21 -4 21 -19q0 -16 -21 -16h-461q-16 0 -16 14z" />
<glyph unicode="l" horiz-adv-x="505" d="M31 1120q-1 2 -1 5q0 7 5 10q90 51 137 86q33 22 92 69q6 6 14 6q4 0 9 -2q12 -6 12 -18v-1120q0 -39 8 -54q12 -20 53 -20q35 0 54 12q12 8 22 8q17 0 17 -16q0 -12 -15 -29q-20 -26 -55 -49q-59 -37 -135 -37q-125 0 -125 158v963q0 24 -43 22q-17 0 -35 -2 q-12 -2 -14 8z" />
<glyph unicode="m" horiz-adv-x="1646" d="M39 819q-2 5 -2 9q0 7 4 14q14 20 65 45q64 31 127 31q121 0 121 -136v-2q135 144 316 144q186 0 237 -168l29 24q137 144 313 144q244 0 244 -281v-457q0 -100 33 -120q14 -13 80 -31q20 -4 20 -19q0 -16 -20 -16h-420q-17 0 -15 14q0 17 15 19q94 12 119 51 q18 31 18 102v435q0 194 -168 194q-94 0 -213 -108l-22 -21q2 -20 2 -43v-457q0 -100 33.5 -121.5t101.5 -29.5q18 -4 18 -19q0 -16 -18 -16h-439q-14 0 -14 14q0 17 14 19q78 10 108 47t30 106v361q0 153 -47 215q-39 53 -134 53q-118 0 -217 -108v-521q0 -100 35 -122.5 t92 -28.5q19 -4 19 -19q0 -16 -19 -16h-422q-16 0 -16 14q2 17 16 19q70 8 99 45q20 26 20 108v568q0 73 -57 73q-10 0 -22.5 -3t-34.5 -13q-7 -2 -11 -2q-12 0 -18 10z" />
<glyph unicode="n" horiz-adv-x="1058" d="M29 819q-2 5 -2 9q0 7 4 14q12 20 65 45q62 31 127 31q123 0 123 -136v-2q135 144 313 144q242 0 242 -281v-457q0 -100 35 -120q14 -13 80 -31q18 -4 18 -19q0 -16 -18 -16h-420q-16 0 -14 14q0 17 14 19q86 10 111 51q18 31 18 102v435q0 194 -160 194 q-114 0 -213 -108v-521q0 -100 35 -122.5t86 -28.5q21 -4 21 -19q0 -16 -21 -16h-422q-14 0 -14 14q0 17 14 19q70 8 99 45q20 26 20 108v568q0 73 -57 73q-11 0 -22 -3t-34 -13q-6 -2 -12 -2q-10 0 -16 10z" />
<glyph unicode="o" horiz-adv-x="1056" d="M53 457q0 200 133 332.5t334 132.5q217 0 345 -134.5t128 -353.5q0 -201 -135 -333t-332 -132q-207 0 -340 137.5t-133 350.5zM248 449q0 -160 59 -271q74 -137 215 -137q123 0 199 117q63 94 74 227q2 27 2 53q0 152 -60 262q-73 131 -211 144q-12 1 -23 1 q-109 0 -177 -104q-62 -94 -74 -233q-4 -29 -4 -59zM530 922z" />
<glyph unicode="p" horiz-adv-x="1056" d="M12 -424q0 16 15 18q88 11 112 52q19 30 19 102v1020q0 74 -54 74q-10 0 -21 -4t-34 -15q-6 -2 -12 -2q-10 0 -17 10q-4 11 3 23q12 20 65 45q62 31 125 31q123 0 123 -135q86 125 282 125q162 0 273 -125q102 -117 102 -346q0 -199 -108 -340q-99 -129 -307 -129 q-158 0 -240 108v-340q0 -98 30.5 -118.5t114.5 -32.5q19 -5 19 -19q0 -16 -19 -16h-456q-17 0 -15 14zM338 199q51 -131 194 -131q136 0 203 90q78 102 78 291q0 204 -80 290t-192 86q-78 0 -140.5 -44t-62.5 -126v-456z" />
<glyph unicode="q" horiz-adv-x="1054" d="M57 461q0 217 103 334q112 125 272 125q182 0 285 -97q31 41 78 74t75 33q29 0 29 -31v-1151q0 -98 35 -121q29 -18 110 -30q19 -5 19 -19q0 -16 -19 -16h-477q-14 0 -14 14q0 16 14 18q103 13 127.5 44.5t24.5 109.5v340q-84 -108 -246 -108q-207 0 -307 129 q-109 141 -109 352zM238 449q0 -236 112 -328q66 -53 168 -53q144 0 197 131v456q0 80 -64.5 125t-138.5 45q-115 0 -194.5 -86t-79.5 -290z" />
<glyph unicode="r" horiz-adv-x="714" d="M8 821q0 10 12 21q86 78 191 78q123 0 129 -154l2 -27q139 187 254 187q49 0 84 -29t35 -78q0 -94 -88 -94q-37 0 -81 35t-61 35q-47 0 -94 -61.5t-47 -108.5v-439q0 -98 35 -120q24 -17 127 -31q18 -4 18 -19q0 -16 -18 -16h-479q-17 0 -17 14q2 17 17 19q93 12 119 44 q24 30 24 98v11v545q0 92 -61 92q-17 0 -33 -6q-41 -16 -47 -16q-21 0 -21 20z" />
<glyph unicode="s" horiz-adv-x="823" d="M82 176q0 68 76 68q65 0 78 -78q8 -47 62 -90t105 -43q185 0 185 137q0 74 -76 131q-25 18 -158 88q-151 82 -202 150q-46 55 -46 143q0 109 85 179.5t210 70.5q115 0 195 -45q90 -51 90 -135q0 -68 -72 -68q-65 0 -75 68q-19 129 -144 129q-71 0 -114 -40t-43 -98 q0 -104 194 -190q305 -139 305 -317q0 -125 -110 -195q-92 -57 -224 -57q-114 0 -213 51q-108 57 -108 141z" />
<glyph unicode="t" horiz-adv-x="587" d="M31 827q112 68 256 297q8 15 22 15q23 0 23 -19v-252h196q9 0 13 -10q2 -10 -2 -16q-41 -43 -113 -43h-100v-531q0 -180 110 -180q64 0 107 49q6 10 14 10q18 0 18 -22q0 -8 -4 -14q-51 -70 -114.5 -99.5t-118.5 -29.5q-188 0 -188 258v559h-113q-16 8 -16 16q0 6 10 12z " />
<glyph unicode="u" horiz-adv-x="1058" d="M8 829q0 7 2 13q15 20 66 45q63 31 129 31q123 0 123 -136v-501q0 -183 159 -183q115 0 215 113v543q0 73 -55 73q-12 0 -23.5 -3t-33.5 -13q-6 -2 -12 -2q-11 0 -17 10q-4 12 2 23q15 20 66 45q63 31 129 31q123 0 123 -136v-604q0 -80 63 -80q33 0 53 15q11 6 21 6 q18 0 18 -17q0 -12 -14 -28q-21 -25 -55 -47q-60 -39 -119 -39q-55 0 -93 36.5t-38 102.5v31q-158 -176 -316 -176q-114 0 -181.5 72.5t-67.5 189.5v512q0 71 -56 71q-12 0 -23.5 -3t-33.5 -13q-6 -2 -12 -2q-19 0 -19 20z" />
<glyph unicode="v" horiz-adv-x="1058" d="M37 895q0 16 18 16h383q17 0 19 -14q0 -14 -15 -16q-69 -11 -82 -33q-4 -8 -4 -19q0 -28 21 -77l217 -508l205 499q17 44 17 73q0 15 -5 26q-16 28 -82 39q-14 2 -12 16q0 14 16 14h260q19 0 19 -16q0 -14 -19 -16q-37 -9 -51 -23q-20 -22 -59 -115l-310 -727 q-14 -32 -28 -32q-15 0 -33 38l-324 734q-32 75 -67 102q-21 14 -66 23q-18 2 -18 16z" />
<glyph unicode="w" horiz-adv-x="1529" d="M37 895q0 16 18 16h355q14 0 16 -14t-12 -16q-66 -11 -78 -33q-7 -13 -7 -32q0 -31 19 -77l203 -499l188 391q0 22 -51 137q-29 66 -57 88q-19 16 -58 23q-20 2 -20 16q0 16 20 16h394q16 0 18 -14q0 -14 -14 -16q-88 -15 -101 -39q-6 -15 -6 -34q0 -30 15 -69l196 -487 l209 491q18 40 18 68q0 19 -8 33q-12 26 -73 37q-15 2 -15 16t17 14h227q20 0 20 -14q0 -12 -18 -18q-35 -15 -84 -131l-317 -750q-7 -18 -17 -18q-12 6 -14 10l-234 549l-272 -547q-6 -12 -14 -12q-13 6 -15 10l-331 774q-31 74 -47.5 91t-51.5 24q-18 2 -18 16z" />
<glyph unicode="x" horiz-adv-x="1058" d="M-354 444zM35 18q0 13 16 17q55 16 74 28q35 29 113 136l194 266l-207 297q-51 76 -84 94q-14 8 -71 16q-19 2 -19 17q0 18 19 18h405q17 0 19 -16q0 -14 -15 -17l-51 -8q-31 -10 -31 -37q0 -22 45 -94l82 -129l115 164q26 39 26 63q0 5 -1 9q-7 22 -64 32q-14 3 -14 17 q0 16 16 16h295q21 0 21 -18q0 -15 -17 -17q-57 -10 -80 -22q-49 -25 -100 -94l-156 -211l258 -367q62 -88 97 -117q28 -20 77 -26q19 -4 19 -19q0 -16 -19 -16h-401q-16 0 -16 14q0 15 16 17q25 4 51 8q12 4 21 18q4 6 4 17q0 30 -47 98l-158 221l-160 -235 q-55 -80 -51 -99q6 -18 74 -28q14 -2 14 -17q0 -14 -16 -14h-273q-20 0 -20 18z" />
<glyph unicode="y" horiz-adv-x="1058" d="M29 891q0 18 18 18h402q16 0 16 -16q2 -19 -12 -21q-43 -4 -58 -8q-37 -10 -47 -28q-4 -8 -4 -20q0 -26 21 -71l241 -512l195 515q15 39 15 64q0 15 -5 26q-16 28 -82 34q-14 2 -12 19q0 18 16 18h260q19 0 19 -16t-19 -19q-37 -8 -51 -22q-18 -23 -55 -115l-309 -774 q-74 -186 -125 -262q-99 -141 -234 -141q-63 0 -106 26q-54 31 -54 88q0 90 109 90q27 0 80 -18t76 -18q53 0 122 125q64 114 64 174q0 20 -10 43l-332 678q-37 75 -66 100q-16 16 -55 22q-18 4 -18 21z" />
<glyph unicode="z" horiz-adv-x="940" d="M61 31q0 10 7 18l550 795h-276q-113 0 -146.5 -37t-45.5 -123q-5 -22 -23 -22q-14 0 -14 22l4 174q0 45 49 45h651q31 0 31 -29q0 -10 -4 -18l-561 -795h292q152 0 193 37q47 45 80 162q6 21 20 21q19 0 17 -27l-23 -209q-4 -45 -63 -45h-711q-27 0 -27 31z" />
<glyph unicode="{" horiz-adv-x="638" d="M131 500q0 8 25 32q43 48 49 56q22 35 22 88q0 49 -16 123l-68 272q-8 33 -8 64q0 137 160 208q121 58 272 58q29 0 29 -25v-82q0 -24 -31 -24q-246 0 -246 -187q0 -22 5 -47l40 -237q7 -43 7 -84q0 -156 -97 -221q52 -52 66 -72q41 -62 41 -143q0 -33 -6 -70l-51 -295 q-3 -14 -3 -29q0 -82 69 -136t175 -54q31 0 31 -21v-84q0 -24 -35 -24q-147 0 -274 65q-150 78 -150 199q0 25 6 49l82 330q15 53 15 94q0 88 -86 168q-23 21 -23 29z" />
<glyph unicode="|" horiz-adv-x="327" d="M122 -401v1781h82v-1781h-82z" />
<glyph unicode="}" horiz-adv-x="638" d="M43 -326q0 21 31 21q106 0 174.5 54t68.5 136q0 15 -2 29l-51 295q-6 37 -6 70q0 81 41 143q14 20 66 72q-97 65 -97 221q0 41 8 84l39 237q4 25 4 47q0 187 -245 187q-31 0 -31 24v82q0 25 29 25q151 0 272 -58q160 -71 160 -208q0 -31 -8 -64l-68 -272 q-16 -74 -16 -123q0 -53 22 -88q6 -8 49 -56q25 -24 25 -32t-23 -29q-86 -80 -86 -168q0 -41 15 -94l82 -330q6 -24 6 -49q0 -127 -158 -203q-127 -61 -266 -61q-35 0 -35 24v84z" />
<glyph unicode="~" horiz-adv-x="1107" d="M28 295q14 100 73 190q74 113 197 113q82 0 272.5 -72.5t259.5 -72.5q74 0 125 61q39 45 70 127q16 41 37 41q16 0 16 -27q0 -6 -2 -14q-41 -172 -119 -246q-69 -65 -161 -65q-88 0 -278.5 75.5t-250.5 75.5q-127 0 -192 -186q-13 -37 -33 -37t-14 37z" />
<glyph unicode="&#xa2;" horiz-adv-x="874" d="M110 387q0 215 133 334q104 88 233 88q19 0 53 -2l119 328h62l-123 -344q157 -72 157 -175q0 -71 -79 -71q-48 0 -74 33q-12 16 -21 59q-10 55 -16 65l-195 -538q78 -53 140 -53q110 0 174 73q24 31 69 125l27 -10q-80 -319 -330 -319q-67 0 -137 30l-121 -334h-61 l133 365q-143 135 -143 346zM247 457q0 -117 67 -244l193 526q-25 11 -51 11q-109 0 -164 -97q-45 -80 -45 -196z" />
<glyph unicode="&#xa3;" horiz-adv-x="874" d="M51 90q0 60 40 96.5t102 36.5q28 0 71 -6q2 12 4 37v29q0 75 -18 280h-166v82h166q-12 127 -12 170q0 225 159 324q72 45 158 45q82 0 145 -45q72 -49 72 -129q0 -27 -20.5 -49.5t-46.5 -22.5q-33 0 -54 33q-10 14 -14 69q-4 50 -28.5 73.5t-73.5 23.5q-156 0 -156 -240 q0 -57 10 -160q2 -16 8 -92h221v-82h-221q2 -39 2 -57q0 -150 -53 -307q164 -54 191 -60q45 -10 88 -10q141 0 180 137l31 -8q-15 -113 -72 -188q-68 -90 -174 -90q-72 0 -150 45q-30 18 -129 92q-67 -137 -159 -137q-46 0 -73.5 31.5t-27.5 78.5zM100 96q0 -67 56 -67 q69 0 98 118q-37 23 -72 23q-82 0 -82 -74z" />
<glyph unicode="&#xa5;" horiz-adv-x="874" d="M2 301v61h363v125l-13 31h-350v62h322l-183 424q-26 63 -49 88q-33 34 -90 34v33h377v-33q-103 -6 -103 -53q0 -12 15 -49l184 -444l182 430q17 43 17 65q0 45 -72 49q-6 0 -22 2v33h294v-33q-51 0 -73 -18q-39 -33 -74 -113l-182 -415h329v-62h-358l-6 -14v-142h364v-61 h-364v-92q0 -76 2 -84q6 -51 37 -70.5t74 -19.5h34v-35h-440v35h27q100 0 116 71q5 15 5 103v92h-363z" />
<glyph unicode="&#xa8;" horiz-adv-x="583" d="M49 1051q0 36 26.5 64t65.5 28t65.5 -26.5t26.5 -65.5t-26.5 -66t-65.5 -27q-37 0 -64.5 27t-27.5 66zM350 1051q0 39 26.5 65.5t65.5 26.5t66 -26.5t27 -65.5t-27 -66t-66 -27q-36 0 -64 27t-28 66z" />
<glyph unicode="&#xa9;" horiz-adv-x="1335" d="M61 580q0 163 84 307.5t226.5 221.5t296.5 77q161 0 304.5 -81t221.5 -220q80 -146 80 -305q0 -162 -82 -305.5t-225.5 -222.5t-298.5 -79q-162 0 -305.5 82t-222.5 224.5t-79 300.5zM115 580q0 -148 74.5 -279t204.5 -202.5t274 -71.5q149 0 279 74.5t203 204.5t73 274 q0 149 -76 280t-208 203t-271 72q-148 0 -278 -75t-202 -202q-73 -133 -73 -278zM276 575q0 175 127 287q121 109 299 109q60 0 158 -33q21 -6 31 -6q27 0 43 37h35l16 -238h-33q-61 201 -260 201q-139 0 -215 -107q-59 -84 -59 -225q0 -354 282 -354q168 0 269 139l30 -16 q-118 -174 -327 -174q-166 0 -281 107.5t-115 272.5z" />
<glyph unicode="&#xab;" horiz-adv-x="1024" d="M63 465l388 469h57l-244 -469l244 -473h-57zM508 465l393 469h60l-244 -469l244 -473h-60z" />
<glyph unicode="&#xad;" horiz-adv-x="786" d="M88 446v84q0 23 23 23h565q22 0 22 -23v-84q0 -22 -22 -22h-565q-23 0 -23 22z" />
<glyph unicode="&#xae;" horiz-adv-x="1331" d="M59 580q0 251 177.5 428.5t429.5 177.5t429 -176t177 -430q0 -252 -177 -429.5t-429 -177.5t-429.5 177.5t-177.5 429.5zM113 580q0 -230 161.5 -391.5t391.5 -161.5q229 0 391 160.5t162 392.5q0 231 -162 393t-391 162q-232 0 -392.5 -163t-160.5 -392zM319 213v29 q60 0 76 26q15 19 15 82v475q0 58 -11 74q-16 23 -69 23v30h329q103 0 172 -43q82 -51 82 -147q0 -141 -188 -191l178 -256q49 -69 103 -73v-29h-156l-252 346h-66v-264q0 -53 101 -53v-29h-314zM532 596q244 0 244 156q0 71 -49 117t-123 46q-33 0 -72 -14v-305z" />
<glyph unicode="&#xb4;" horiz-adv-x="583" d="M38 946l301 275q49 43 90 43q70 0 70 -60q0 -43 -64 -78l-315 -180h-82zM294 856z" />
<glyph unicode="&#xb8;" horiz-adv-x="681" d="M186 -340q29 -4 50 -4q47 0 83.5 31.5t36.5 79.5q0 30 -23.5 51.5t-56.5 21.5q-10 0 -26 -2l110 178h62l-51 -79q125 -31 125 -146q0 -82 -65.5 -131t-149.5 -49q-37 0 -95 6v43z" />
<glyph unicode="&#xbb;" horiz-adv-x="1024" d="M63 -8l244 471l-244 471h60l393 -471l-393 -471h-60zM516 -8l244 471l-244 471h57l388 -471l-388 -471h-57z" />
<glyph unicode="&#x2c6;" horiz-adv-x="681" d="M59 1055l191 329h182l191 -329h-31l-273 213l-229 -213h-31z" />
<glyph unicode="&#x591;" d="M83 712q0 110 77 187t185 77q111 0 187.5 -77t76.5 -187q0 -111 -76.5 -187t-187.5 -76q-108 0 -185 77t-77 186zM155 712q0 -78 55 -134.5t135 -56.5t135.5 56.5t55.5 134.5q0 82 -55.5 137t-135.5 55t-135 -55t-55 -137z" />
<glyph unicode="&#x592;" d="M83 712q0 110 77 187t185 77q111 0 187.5 -77t76.5 -187q0 -111 -76.5 -187t-187.5 -76q-108 0 -185 77t-77 186zM155 712q0 -78 55 -134.5t135 -56.5t135.5 56.5t55.5 134.5q0 82 -55.5 137t-135.5 55t-135 -55t-55 -137z" />
<glyph unicode="&#x593;" d="M156 712q0 -78 55 -134.5t135 -56.5t135.5 56.5t55.5 134.5q0 82 -55.5 137t-135.5 55t-135 -55t-55 -137z" />
<glyph unicode="&#x594;" horiz-adv-x="369" d="M111 -217v1644q0 31 51 31h33q63 0 63 -39v-1630q0 -37 -63 -37h-33q-51 0 -51 31z" />
<glyph unicode="&#x595;" d="M83 712q0 110 77 187t185 77q111 0 187.5 -77t76.5 -187q0 -111 -76.5 -187t-187.5 -76q-108 0 -185 77t-77 186zM155 712q0 -78 55 -134.5t135 -56.5t135.5 56.5t55.5 134.5q0 82 -55.5 137t-135.5 55t-135 -55t-55 -137z" />
<glyph unicode="&#x596;" d="M83 712q0 110 77 187t185 77q111 0 187.5 -77t76.5 -187q0 -111 -76.5 -187t-187.5 -76q-108 0 -185 77t-77 186zM155 712q0 -78 55 -134.5t135 -56.5t135.5 56.5t55.5 134.5q0 82 -55.5 137t-135.5 55t-135 -55t-55 -137z" />
<glyph unicode="&#x597;" d="M83 712q0 110 77 187t185 77q111 0 187.5 -77t76.5 -187q0 -111 -76.5 -187t-187.5 -76q-108 0 -185 77t-77 186zM155 712q0 -78 55 -134.5t135 -56.5t135.5 56.5t55.5 134.5q0 82 -55.5 137t-135.5 55t-135 -55t-55 -137z" />
<glyph unicode="&#x598;" d="M83 712q0 110 77 187t185 77q111 0 187.5 -77t76.5 -187q0 -111 -76.5 -187t-187.5 -76q-108 0 -185 77t-77 186zM155 712q0 -78 55 -134.5t135 -56.5t135.5 56.5t55.5 134.5q0 82 -55.5 137t-135.5 55t-135 -55t-55 -137z" />
<glyph unicode="&#x599;" d="M83 712q0 110 77 187t185 77q111 0 187.5 -77t76.5 -187q0 -111 -76.5 -187t-187.5 -76q-108 0 -185 77t-77 186zM155 712q0 -78 55 -134.5t135 -56.5t135.5 56.5t55.5 134.5q0 82 -55.5 137t-135.5 55t-135 -55t-55 -137z" />
<glyph unicode="&#x59a;" d="M83 712q0 110 77 187t185 77q111 0 187.5 -77t76.5 -187q0 -111 -76.5 -187t-187.5 -76q-108 0 -185 77t-77 186zM155 712q0 -78 55 -134.5t135 -56.5t135.5 56.5t55.5 134.5q0 82 -55.5 137t-135.5 55t-135 -55t-55 -137z" />
<glyph unicode="&#x59b;" d="M83 712q0 110 77 187t185 77q111 0 187.5 -77t76.5 -187q0 -111 -76.5 -187t-187.5 -76q-108 0 -185 77t-77 186zM155 712q0 -78 55 -134.5t135 -56.5t135.5 56.5t55.5 134.5q0 82 -55.5 137t-135.5 55t-135 -55t-55 -137z" />
<glyph unicode="&#x59c;" d="M83 712q0 110 77 187t185 77q111 0 187.5 -77t76.5 -187q0 -111 -76.5 -187t-187.5 -76q-108 0 -185 77t-77 186zM155 712q0 -78 55 -134.5t135 -56.5t135.5 56.5t55.5 134.5q0 82 -55.5 137t-135.5 55t-135 -55t-55 -137z" />
<glyph unicode="&#x59d;" d="M83 712q0 110 77 187t185 77q111 0 187.5 -77t76.5 -187q0 -111 -76.5 -187t-187.5 -76q-108 0 -185 77t-77 186zM155 712q0 -78 55 -134.5t135 -56.5t135.5 56.5t55.5 134.5q0 82 -55.5 137t-135.5 55t-135 -55t-55 -137z" />
<glyph unicode="&#x59e;" d="M83 712q0 110 77 187t185 77q111 0 187.5 -77t76.5 -187q0 -111 -76.5 -187t-187.5 -76q-108 0 -185 77t-77 186zM155 712q0 -78 55 -134.5t135 -56.5t135.5 56.5t55.5 134.5q0 82 -55.5 137t-135.5 55t-135 -55t-55 -137z" />
<glyph unicode="&#x59f;" d="M83 712q0 110 77 187t185 77q111 0 187.5 -77t76.5 -187q0 -111 -76.5 -187t-187.5 -76q-108 0 -185 77t-77 186zM155 712q0 -78 55 -134.5t135 -56.5t135.5 56.5t55.5 134.5q0 82 -55.5 137t-135.5 55t-135 -55t-55 -137z" />
<glyph unicode="&#x5a0;" d="M83 712q0 110 77 187t185 77q111 0 187.5 -77t76.5 -187q0 -111 -76.5 -187t-187.5 -76q-108 0 -185 77t-77 186zM155 712q0 -78 55 -134.5t135 -56.5t135.5 56.5t55.5 134.5q0 82 -55.5 137t-135.5 55t-135 -55t-55 -137z" />
<glyph unicode="&#x5a1;" d="M83 712q0 110 77 187t185 77q111 0 187.5 -77t76.5 -187q0 -111 -76.5 -187t-187.5 -76q-108 0 -185 77t-77 186zM155 712q0 -78 55 -134.5t135 -56.5t135.5 56.5t55.5 134.5q0 82 -55.5 137t-135.5 55t-135 -55t-55 -137z" />
<glyph unicode="&#x5a3;" d="M83 712q0 110 77 187t185 77q111 0 187.5 -77t76.5 -187q0 -111 -76.5 -187t-187.5 -76q-108 0 -185 77t-77 186zM155 712q0 -78 55 -134.5t135 -56.5t135.5 56.5t55.5 134.5q0 82 -55.5 137t-135.5 55t-135 -55t-55 -137z" />
<glyph unicode="&#x5a4;" d="M83 712q0 110 77 187t185 77q111 0 187.5 -77t76.5 -187q0 -111 -76.5 -187t-187.5 -76q-108 0 -185 77t-77 186zM155 712q0 -78 55 -134.5t135 -56.5t135.5 56.5t55.5 134.5q0 82 -55.5 137t-135.5 55t-135 -55t-55 -137z" />
<glyph unicode="&#x5a5;" d="M83 712q0 110 77 187t185 77q111 0 187.5 -77t76.5 -187q0 -111 -76.5 -187t-187.5 -76q-108 0 -185 77t-77 186zM155 712q0 -78 55 -134.5t135 -56.5t135.5 56.5t55.5 134.5q0 82 -55.5 137t-135.5 55t-135 -55t-55 -137z" />
<glyph unicode="&#x5a6;" d="M83 712q0 110 77 187t185 77q111 0 187.5 -77t76.5 -187q0 -111 -76.5 -187t-187.5 -76q-108 0 -185 77t-77 186zM155 712q0 -78 55 -134.5t135 -56.5t135.5 56.5t55.5 134.5q0 82 -55.5 137t-135.5 55t-135 -55t-55 -137z" />
<glyph unicode="&#x5a7;" d="M83 712q0 110 77 187t185 77q111 0 187.5 -77t76.5 -187q0 -111 -76.5 -187t-187.5 -76q-108 0 -185 77t-77 186zM155 712q0 -78 55 -134.5t135 -56.5t135.5 56.5t55.5 134.5q0 82 -55.5 137t-135.5 55t-135 -55t-55 -137z" />
<glyph unicode="&#x5a8;" d="M83 712q0 110 77 187t185 77q111 0 187.5 -77t76.5 -187q0 -111 -76.5 -187t-187.5 -76q-108 0 -185 77t-77 186zM155 712q0 -78 55 -134.5t135 -56.5t135.5 56.5t55.5 134.5q0 82 -55.5 137t-135.5 55t-135 -55t-55 -137z" />
<glyph unicode="&#x5a9;" d="M83 712q0 110 77 187t185 77q111 0 187.5 -77t76.5 -187q0 -111 -76.5 -187t-187.5 -76q-108 0 -185 77t-77 186zM155 712q0 -78 55 -134.5t135 -56.5t135.5 56.5t55.5 134.5q0 82 -55.5 137t-135.5 55t-135 -55t-55 -137z" />
<glyph unicode="&#x5aa;" d="M83 712q0 110 77 187t185 77q111 0 187.5 -77t76.5 -187q0 -111 -76.5 -187t-187.5 -76q-108 0 -185 77t-77 186zM155 712q0 -78 55 -134.5t135 -56.5t135.5 56.5t55.5 134.5q0 82 -55.5 137t-135.5 55t-135 -55t-55 -137z" />
<glyph unicode="&#x5ab;" d="M83 712q0 110 77 187t185 77q111 0 187.5 -77t76.5 -187q0 -111 -76.5 -187t-187.5 -76q-108 0 -185 77t-77 186zM155 712q0 -78 55 -134.5t135 -56.5t135.5 56.5t55.5 134.5q0 82 -55.5 137t-135.5 55t-135 -55t-55 -137z" />
<glyph unicode="&#x5ac;" d="M83 712q0 110 77 187t185 77q111 0 187.5 -77t76.5 -187q0 -111 -76.5 -187t-187.5 -76q-108 0 -185 77t-77 186zM155 712q0 -78 55 -134.5t135 -56.5t135.5 56.5t55.5 134.5q0 82 -55.5 137t-135.5 55t-135 -55t-55 -137z" />
<glyph unicode="&#x5ad;" d="M83 712q0 110 77 187t185 77q111 0 187.5 -77t76.5 -187q0 -111 -76.5 -187t-187.5 -76q-108 0 -185 77t-77 186zM155 712q0 -78 55 -134.5t135 -56.5t135.5 56.5t55.5 134.5q0 82 -55.5 137t-135.5 55t-135 -55t-55 -137z" />
<glyph unicode="&#x5ae;" d="M83 712q0 110 77 187t185 77q111 0 187.5 -77t76.5 -187q0 -111 -76.5 -187t-187.5 -76q-108 0 -185 77t-77 186zM155 712q0 -78 55 -134.5t135 -56.5t135.5 56.5t55.5 134.5q0 82 -55.5 137t-135.5 55t-135 -55t-55 -137z" />
<glyph unicode="&#x5af;" d="M83 712q0 110 77 187t185 77q111 0 187.5 -77t76.5 -187q0 -111 -76.5 -187t-187.5 -76q-108 0 -185 77t-77 186zM155 712q0 -78 55 -134.5t135 -56.5t135.5 56.5t55.5 134.5q0 82 -55.5 137t-135.5 55t-135 -55t-55 -137z" />
<glyph unicode="&#x5b0;" horiz-adv-x="2" d="M-86 -243q0 35 27 59.5t61 24.5q37 0 61.5 -24.5t24.5 -59.5t-25.5 -60.5t-60.5 -25.5q-36 0 -62 25.5t-26 60.5zM-86 -512q0 35 27 59.5t61 24.5q37 0 61.5 -24.5t24.5 -59.5q0 -34 -25.5 -60t-60.5 -26q-36 0 -62 26t-26 60z" />
<glyph unicode="&#x5b1;" horiz-adv-x="2" d="M-309 -243q0 33 25.5 58.5t60.5 25.5q37 0 61.5 -24.5t24.5 -59.5t-25.5 -60.5t-60.5 -25.5q-33 0 -59.5 24.5t-26.5 61.5zM-182 -450q0 35 25.5 59.5t60.5 24.5t60.5 -24.5t25.5 -59.5t-25.5 -60.5t-60.5 -25.5q-33 0 -59.5 24.5t-26.5 61.5zM-75 -243q0 33 27.5 58.5 t59.5 25.5q37 0 61.5 -23.5t24.5 -60.5q0 -35 -25.5 -60.5t-60.5 -25.5q-34 0 -60.5 25.5t-26.5 60.5zM168 -243q0 74 70 74q73 0 73 -74q0 -29 -22.5 -49.5t-50.5 -20.5q-70 0 -70 70zM168 -458q0 30 20.5 50.5t49.5 20.5q73 0 73 -71q0 -29 -21.5 -50.5t-51.5 -21.5 q-70 0 -70 72z" />
<glyph unicode="&#x5b2;" horiz-adv-x="2" d="M-284 -208q0 30 26 30h301q27 0 27 -30v-66q0 -31 -27 -31h-301q-26 0 -26 31v66zM143 -243q0 74 70 74q74 0 74 -74q0 -29 -22.5 -49.5t-51.5 -20.5q-70 0 -70 70zM143 -458q0 71 70 71q74 0 74 -71q0 -29 -21.5 -50.5t-52.5 -21.5q-70 0 -70 72z" />
<glyph unicode="&#x5b3;" horiz-adv-x="2" d="M-284 -208q0 30 26 30h301q27 0 27 -30v-66q0 -31 -27 -31h-118q0 -43 20 -88l23 -51q8 -16 8 -35q0 -33 -24.5 -57.5t-59.5 -24.5t-59.5 24.5t-24.5 57.5q0 19 8 35l23 51q22 49 22 88h-119q-26 0 -26 31v66zM143 -243q0 74 70 74q33 0 53.5 -20.5t20.5 -53.5 q0 -29 -22.5 -49.5t-51.5 -20.5q-70 0 -70 70zM143 -458q0 71 70 71q74 0 74 -71q0 -29 -21.5 -50.5t-52.5 -21.5q-70 0 -70 72z" />
<glyph unicode="&#x5b4;" horiz-adv-x="2" d="M-90 -243q0 37 28 62.5t64 25.5q39 0 64.5 -25.5t25.5 -62.5q0 -35 -27.5 -62.5t-62.5 -27.5q-36 0 -64 27.5t-28 62.5z" />
<glyph unicode="&#x5b5;" horiz-adv-x="2" d="M-217 -243q0 35 26 59.5t60 24.5q86 0 86 -84q0 -35 -25.5 -60.5t-60.5 -25.5q-34 0 -60 25.5t-26 60.5zM47 -243q0 35 25.5 59.5t60.5 24.5q37 0 61.5 -24.5t24.5 -59.5t-25.5 -60.5t-60.5 -25.5t-60.5 25.5t-25.5 60.5z" />
<glyph unicode="&#x5b6;" horiz-adv-x="2" d="M-217 -243q0 35 26 59.5t60 24.5q86 0 86 -84q0 -35 -25.5 -60.5t-60.5 -25.5q-34 0 -60 25.5t-26 60.5zM-77 -468q0 34 25.5 58.5t59.5 24.5q37 0 61.5 -24.5t24.5 -58.5q0 -35 -25.5 -61t-60.5 -26q-34 0 -59.5 26t-25.5 61zM47 -243q0 35 25.5 59.5t60.5 24.5 q37 0 61.5 -24.5t24.5 -59.5t-25.5 -60.5t-60.5 -25.5t-60.5 25.5t-25.5 60.5z" />
<glyph unicode="&#x5b7;" horiz-adv-x="2" d="M-217 -208q0 30 27 30h383q26 0 26 -30v-66q0 -31 -26 -31h-383q-27 0 -27 31v66z" />
<glyph unicode="&#x5b8;" horiz-adv-x="2" d="M-217 -208q0 30 27 30h383q26 0 26 -30v-66q0 -31 -26 -31h-158q0 -47 18 -88l23 -51q8 -16 8 -35q0 -35 -24.5 -58.5t-57.5 -23.5q-34 0 -58.5 24.5t-24.5 57.5q0 19 8 35l22 51q21 45 21 88h-160q-27 0 -27 31v66z" />
<glyph unicode="&#x5b9;" horiz-adv-x="2" d="M-86 1220q0 33 26 58.5t60 25.5q39 0 62.5 -23.5t23.5 -60.5q0 -35 -25.5 -60.5t-60.5 -25.5q-34 0 -60 25.5t-26 60.5z" />
<glyph unicode="&#x5bb;" horiz-adv-x="2" d="M-80 -243q0 35 25.5 59.5t60.5 24.5q86 0 86 -84q0 -35 -25.5 -60.5t-60.5 -25.5t-60.5 25.5t-25.5 60.5zM64 -417q0 35 25.5 59.5t59.5 24.5q37 0 61.5 -23.5t24.5 -60.5q0 -35 -25.5 -60.5t-60.5 -25.5q-34 0 -59.5 25.5t-25.5 60.5zM204 -589q0 32 26 58t60 26 q86 0 86 -84q0 -35 -25.5 -60.5t-60.5 -25.5q-34 0 -60 25.5t-26 60.5z" />
<glyph unicode="&#x5bc;" horiz-adv-x="2" d="M-86 457q0 32 27 58t59 26q37 0 61.5 -23.5t24.5 -60.5q0 -35 -25.5 -60.5t-60.5 -25.5q-34 0 -60 25.5t-26 60.5z" />
<glyph unicode="&#x5bd;" horiz-adv-x="2" d="M-60 -204q0 26 31 26h65q31 0 31 -26v-383q0 -27 -31 -27h-65q-31 0 -31 27v383z" />
<glyph unicode="&#x5be;" horiz-adv-x="600" d="M88 876v84q0 23 15 23h372q15 0 15 -23v-84q0 -22 -15 -22h-372q-15 0 -15 22z" />
<glyph unicode="&#x5bf;" horiz-adv-x="600" d="M88 876v84q0 23 15 23h372q15 0 15 -23v-84q0 -22 -15 -22h-372q-15 0 -15 22z" />
<glyph unicode="&#x5c0;" horiz-adv-x="327" d="M122 -401v1781h82v-1781h-82z" />
<glyph unicode="&#x5c1;" horiz-adv-x="2" d="M804 1220q0 33 26 58.5t60 25.5q39 0 62.5 -23.5t23.5 -60.5q0 -35 -25.5 -60.5t-60.5 -25.5q-34 0 -60 25.5t-26 60.5z" />
<glyph unicode="&#x5c2;" horiz-adv-x="2" d="M104 1220q0 33 26 58.5t60 25.5q39 0 62.5 -23.5t23.5 -60.5q0 -35 -25.5 -60.5t-60.5 -25.5q-34 0 -60 25.5t-26 60.5z" />
<glyph unicode="&#x5c3;" horiz-adv-x="432" d="M104 86q0 39 29.5 67.5t70.5 28.5q43 0 72 -28.5t29 -67.5q0 -41 -29 -69.5t-72 -28.5q-41 0 -70.5 28.5t-29.5 69.5zM104 700q0 41 29.5 70t70.5 29q43 0 72 -29t29 -70q0 -38 -29 -67t-72 -29q-41 0 -70.5 29t-29.5 67z" />
<glyph unicode="&#x5c4;" horiz-adv-x="2" d="M-86 1220q0 33 26 58.5t60 25.5q39 0 62.5 -23.5t23.5 -60.5q0 -35 -25.5 -60.5t-60.5 -25.5q-34 0 -60 25.5t-26 60.5z" />
<glyph unicode="&#x5d0;" horiz-adv-x="1009" d="M86 938q0 10 29 23l88 34q16 6 22 6t25 -22q211 -270 362 -487q52 51 70 88q29 59 29 161q0 78 -43 195q-4 10 -4 16q0 15 22 21l100 26q9 2 15 2q16 0 33 -28q45 -78 45 -217q0 -4 -5 -39q-18 -174 -202 -305q129 -183 243 -365q13 -18 13 -27q0 -20 -29 -20h-104 q-37 0 -56 27q-297 438 -377 542q-100 -80 -100 -299q0 -47 19.5 -135t19.5 -121q0 -14 -27 -14h-106q-23 0 -35 27q-33 79 -33 245q0 226 203 379q-78 99 -205 262q-12 17 -12 25z" />
<glyph unicode="&#x5d1;" horiz-adv-x="897" d="M53 926q0 10 14 18q105 66 318 66q229 0 311 -131q64 -99 64 -330q0 -180 -21.5 -271.5t-77.5 -148.5h146q28 0 28 -27v-75q0 -27 -28 -27h-713q-33 0 -33 23v79q0 27 33 27h395q74 0 92 164q4 39 4 235q0 183 -30 256q-45 107 -180 107q-140 0 -240 -70q-6 -4 -14 -4 q-19 0 -25 12l-39 82q-4 11 -4 15z" />
<glyph unicode="&#x5d2;" horiz-adv-x="776" d="M30 14l4 13l43 108q2 8 12 8q11 0 37.5 -5t38.5 -5q115 0 281 213v334q0 92 -38 149.5t-108 57.5q-67 0 -141 -49q-4 -4 -10 -4q-10 0 -19 12l-47 84q-4 8 -4 14q0 12 21 23q73 37 211 37q149 0 227 -101q70 -88 70 -233v-246q0 -211 96 -344q10 -12 10 -21q0 -8 -14 -16 l-80 -51q-6 -4 -12 -4q-7 0 -11 4q-75 71 -133 248l-72 -99q-118 -161 -251 -161q-25 0 -62 8q-49 10 -49 26z" />
<glyph unicode="&#x5d3;" horiz-adv-x="923" d="M36 903v62q0 28 37 28h739q31 0 19 -32l-21 -62q-10 -29 -39 -29h-41q-45 0 -55 -84q-4 -26 -4 -155v-600q0 -31 -41 -31h-84q-41 0 -41 31v510q0 151 6 196q12 101 60 133h-506q-29 0 -29 33z" />
<glyph unicode="&#x5d4;" horiz-adv-x="1019" d="M71 901q0 10 14 19q152 90 422 90q176 0 272.5 -90.5t96.5 -251.5v-633q0 -35 -35 -35h-90q-25 0 -32 6t-7 29v620q0 234 -227 234q-78 0 -174.5 -29t-151.5 -65q-6 -7 -12 -7q-10 0 -19 13l-53 86q-4 8 -4 14zM137 29v491q0 33 26 43l55 21q19 6 27 6q16 0 27 -27 q26 -78 26 -250v-282q0 -31 -39 -31h-84q-38 0 -38 29z" />
<glyph unicode="&#x5d5;" horiz-adv-x="448" d="M92 948q0 17 23 25l81 31q15 6 23 6q12 0 23 -17q63 -90 63 -252v-706q0 -35 -35 -35h-90q-25 0 -31 6t-6 29v672q0 155 -47 229q-4 6 -4 12z" />
<glyph unicode="&#x5d6;" horiz-adv-x="634" d="M40 883q0 6 2 12l18 74q7 22 25 22q33 0 101.5 -11t105.5 -11q35 0 104.5 7t102.5 7q24 0 28 -22l11 -64q4 -25 4 -14q0 -17 -21 -23q-98 -24 -131 -88q-28 -55 -28 -188q0 -201 18 -545q0 -39 -14 -39h-105q-28 0 -31 14q-30 238 -30 512q0 238 127 318q-19 -4 -64 -4 q-139 0 -203 22q-20 6 -20 21z" />
<glyph unicode="&#x5d7;" horiz-adv-x="1077" d="M102 928q0 14 16 20q162 60 422 60q172 0 279 -80q114 -88 114 -250v-643q0 -35 -34 -35h-90q-25 0 -31 6t-6 29v631q0 94 -62 155q-67 66 -184 66q-166 0 -244 -31q31 -94 31 -272v-553q0 -31 -39 -31h-84q-39 0 -39 29v633q0 143 -45 251q-4 9 -4 15z" />
<glyph unicode="&#x5d8;" horiz-adv-x="1075" d="M73 948q0 17 23 25l81 31q15 6 23 6q12 0 23 -17q63 -90 63 -252v-292q0 -353 262 -353q98 0 162 70q88 96 88 317q0 391 -172 391q-51 0 -104 -45q-9 -8 -17 -8q-10 0 -20 15l-41 67q-6 10 -6 17q0 8 22 24q70 55 193 55q127 0 206 -81q113 -119 113 -429 q0 -243 -131 -385q-123 -131 -309 -131q-408 0 -408 471v263q0 155 -47 229q-4 6 -4 12z" />
<glyph unicode="&#x5d9;" horiz-adv-x="430" d="M94 948q0 17 23 23l83 24q19 4 25 4q33 0 55 -106q13 -57 13 -131v-25l-6 -272q-3 -45 -41 -45h-78q-23 0 -27 8t-4 37l-6 260q-6 158 -33 209q-4 6 -4 14z" />
<glyph unicode="&#x5da;" horiz-adv-x="874" d="M40 926q0 12 14 18q115 66 328 66q170 0 259 -81t89 -231v-723q0 -49 20.5 -143t20.5 -123q0 -20 -18 -26l-58 -25q-10 -6 -18 -6q-14 0 -23 12q-88 152 -88 393v629q0 199 -207 199q-120 0 -235 -62q-10 -4 -14 -4q-11 0 -17 10l-49 82q-4 9 -4 15z" />
<glyph unicode="&#x5db;" horiz-adv-x="835" d="M40 45q0 2 10 23l39 75q6 13 19 13q6 0 10 -4q86 -68 190 -68q127 0 199 108.5t72 296.5q0 187 -72 292.5t-199 105.5q-100 0 -188 -60q-10 -6 -17 -6q-12 0 -16 13l-29 79q-12 31 -12 23q0 14 37 31q84 41 250 41q201 0 312.5 -138.5t111.5 -382.5q0 -227 -123 -372.5 t-311 -145.5q-205 0 -271 54q-12 10 -12 22z" />
<glyph unicode="&#x5dc;" horiz-adv-x="860" d="M40 889v2v346q0 27 27 27h112q25 0 25 -29v-242h205q352 0 352 -340q0 -192 -146 -391q-137 -184 -327 -280q-8 -5 -19 -5q-12 0 -18 11l-43 63q-6 8 -6 15q0 6 20 20q361 231 361 555q0 229 -232 229h-293q-18 0 -18 19z" />
<glyph unicode="&#x5dd;" horiz-adv-x="1083" d="M102 920q0 14 16 20q156 64 430 64q172 0 277 -84q115 -95 115 -273v-622q0 -25 -29 -25h-746q-24 0 -24 27v626q0 164 -35 252q-4 8 -4 15zM282 848q21 -78 21 -242v-477h475v485q0 150 -72 215q-63 58 -196 58q-156 0 -228 -39z" />
<glyph unicode="&#x5de;" horiz-adv-x="1097" d="M81 958q0 11 23 19l90 31q4 2 8 2q26 0 57 -78q23 -55 33 -101q129 170 379 170q319 0 319 -507q0 -281 -90 -397.5t-246 -116.5q-118 0 -186 28q-20 6 -20 19q0 6 4 18l22 76q4 12 19 12q8 0 35.5 -11t37.5 -13q29 -7 62 -7q86 0 125 45q65 70 65 351q0 381 -219 381 q-174 0 -293 -193v-270q0 -250 -16 -381q-4 -35 -45 -35h-78q-37 0 -37 20q0 66 7 197t7 197v186q0 184 -59 342q-4 12 -4 16z" />
<glyph unicode="&#x5df;" horiz-adv-x="458" d="M102 948q0 17 23 25l81 31q15 6 23 6q16 0 43 -47q43 -80 43 -222v-764q0 -49 20.5 -141t20.5 -123q0 -20 -16 -28l-58 -25q-10 -4 -18 -4q-15 0 -23 12q-90 154 -90 393v646q0 157 -45 229q-4 6 -4 12z" />
<glyph unicode="&#x5e0;" horiz-adv-x="659" d="M40 946q0 12 20 21q82 41 203 41q152 0 207 -95q45 -75 45 -241v-645q0 -27 -24 -27h-400q-24 0 -24 18v88q0 23 20 23h12h254v590q0 168 -104 168q-41 0 -89 -28l-48 -28q-15 0 -23 11l-45 88q-4 10 -4 16z" />
<glyph unicode="&#x5e1;" horiz-adv-x="1103" d="M81 903q0 12 16 21q148 77 439 77q227 0 350 -129q115 -122 115 -337q0 -234 -111 -390q-123 -172 -340 -172q-199 0 -307.5 120t-108.5 349v154q0 192 -49 293q-4 8 -4 14zM274 840q30 -54 30 -252v-137q0 -353 250 -353q275 0 275 437q0 350 -322 350q-135 0 -233 -45z " />
<glyph unicode="&#x5e2;" horiz-adv-x="974" d="M40 25l8 26l19 64q4 18 22 18q-8 0 21 -4q88 -18 223 -18l-256 823q-2 6 -2 12q0 23 28 29l91 24q10 2 18 2q23 0 31 -24l231 -834q219 76 219 400q0 202 -39 403q-2 10 -2 12q0 15 19 19l92 29q14 4 22 4q23 0 31 -29q41 -160 41 -401q0 -314 -223 -486 q-141 -108 -379 -108q-109 0 -192 14q-23 4 -23 25z" />
<glyph unicode="&#x5e3;" horiz-adv-x="1028" d="M73 905q0 15 18 23q148 73 400 73q186 0 289.5 -109.5t103.5 -305.5v-611q0 -157 31 -256q2 -8 2 -14q0 -14 -15 -20l-61 -27q-10 -4 -20 -4q-15 0 -21 12q-80 135 -80 393v512q0 164 -64.5 237t-211.5 73q-115 0 -160 -29v-186q0 -58 41 -106t102 -54q31 -2 13 -35 l-37 -70q-4 -8 -39 -6q-115 8 -180.5 72.5t-65.5 169.5v141q0 43 -10 66l-31 49q-4 6 -4 12z" />
<glyph unicode="&#x5e4;" horiz-adv-x="1050" d="M79 905q0 15 18 23q148 73 381 73q213 0 336 -122q133 -134 133 -385q0 -215 -112 -355q-133 -162 -381 -162q-236 0 -336 72q-19 14 -19 31q0 6 5 10l63 72q12 14 23 14q8 0 20 -10q94 -72 262 -72q139 0 220 101.5t81 293.5q0 392 -323 392q-115 0 -160 -29v-186 q0 -58 41 -106t102 -54q31 -2 13 -35l-37 -70q-4 -8 -39 -6q-115 8 -180.5 72.5t-65.5 169.5v141q0 43 -10 66l-31 49q-4 6 -4 12z" />
<glyph unicode="&#x5e5;" horiz-adv-x="927" d="M40 954q0 15 23 21l108 29q10 4 14 4q15 0 29 -25l279 -504q63 47 104 129q35 70 35 119q0 92 -49 219q-2 8 -2 15q0 10 24 16l103 24q14 5 22 5q10 0 21 -21q45 -92 45 -209q0 -182 -256 -391q186 -405 231 -653q6 -31 -29 -45l-57 -23q-18 -8 -22 -8q-15 0 -23 29 q-102 401 -340 813l-256 444q-4 8 -4 12z" />
<glyph unicode="&#x5e6;" horiz-adv-x="952" d="M40 954q0 11 27 19l90 26q12 5 20 5q17 0 27 -21q149 -301 315 -504q135 105 135 248q0 96 -45 213q-4 10 -4 16q0 15 17 19l98 26q10 3 18 3q23 0 37 -29q45 -92 45 -189q0 -213 -241 -383q133 -178 200 -247q35 -35 35 -64v-61q0 -31 -29 -31h-675q-29 0 -29 20v84 q0 25 29 25h508q-463 535 -568 797q-10 26 -10 28z" />
<glyph unicode="&#x5e7;" horiz-adv-x="1064" d="M67 907q0 11 16 19q166 82 424 82q242 0 365 -131q102 -109 102 -285q0 -174 -125 -340q-110 -146 -288 -246q-9 -4 -19 -4q-12 0 -18 10l-37 51q-21 29 8 48q129 86 211 200q92 133 92 269q0 139 -82 223t-237 84q-105 0 -215 -45q49 -94 49 -338v-752q0 -28 -25 -41 l-88 -47q-22 -12 -33 -12q-16 0 -16 22v926q0 100 -31 184q-6 21 -49 111q-4 6 -4 12z" />
<glyph unicode="&#x5e8;" horiz-adv-x="884" d="M40 926q0 10 14 18q107 66 330 66q162 0 259 -92.5t97 -260.5v-622q0 -35 -34 -35h-91q-24 0 -30 6t-6 29v610q0 248 -228 248q-116 0 -229 -72q-6 -4 -14 -4q-15 0 -21 12l-43 82q-4 11 -4 15z" />
<glyph unicode="&#x5e9;" horiz-adv-x="1202" d="M79 946q0 15 20 23l86 35q17 6 25 6q10 0 23 -17q59 -86 59 -313v-215q207 37 207 278q0 37 -12.5 106t-12.5 97q0 19 17 25l98 33q12 2 20 2q19 0 29 -39q27 -88 27 -219q0 -132 -86 -234q-99 -119 -287 -149q2 -105 66 -183q73 -88 192 -88q358 0 358 455 q0 235 -32 393l-4 19q0 12 16 16l100 29q13 4 19 4q18 0 24 -25q41 -143 41 -416q0 -286 -149 -444q-142 -152 -383 -152q-408 0 -408 527v166q0 190 -49 266q-4 8 -4 14z" />
<glyph unicode="&#x5ea;" horiz-adv-x="1091" d="M20 41q0 14 23 18q143 31 143 172v543q0 43 -19 76q-4 6 -47 63q-6 7 -6 13q0 16 19 22q180 60 422 60q182 0 287.5 -82t105.5 -248v-643q0 -35 -35 -35h-90q-25 0 -31 6t-6 29v631q0 223 -248 223q-110 0 -205 -29q15 -51 15 -186v-402q0 -122 -58 -200 q-67 -97 -192 -115q-37 -6 -27 -6q-16 0 -20 12l-25 64q-6 16 -6 14z" />
<glyph unicode="&#x5f0;" d="M83 712q0 110 77 187t185 77q111 0 187.5 -77t76.5 -187q0 -111 -76.5 -187t-187.5 -76q-108 0 -185 77t-77 186zM155 712q0 -78 55 -134.5t135 -56.5t135.5 56.5t55.5 134.5q0 82 -55.5 137t-135.5 55t-135 -55t-55 -137z" />
<glyph unicode="&#x5f1;" d="M83 712q0 110 77 187t185 77q111 0 187.5 -77t76.5 -187q0 -111 -76.5 -187t-187.5 -76q-108 0 -185 77t-77 186zM155 712q0 -78 55 -134.5t135 -56.5t135.5 56.5t55.5 134.5q0 82 -55.5 137t-135.5 55t-135 -55t-55 -137z" />
<glyph unicode="&#x5f2;" d="M83 712q0 110 77 187t185 77q111 0 187.5 -77t76.5 -187q0 -111 -76.5 -187t-187.5 -76q-108 0 -185 77t-77 186zM155 712q0 -78 55 -134.5t135 -56.5t135.5 56.5t55.5 134.5q0 82 -55.5 137t-135.5 55t-135 -55t-55 -137z" />
<glyph unicode="&#x5f3;" horiz-adv-x="337" d="M30 893q0 10 12 25q35 43 60 122q18 68 18 115v41q0 35 33 35h98q33 0 33 -35v-41q0 -80 -48 -169t-126 -140q-8 -6 -17 -6q-10 0 -22 10l-25 16q-16 15 -16 27z" />
<glyph unicode="&#x5f4;" horiz-adv-x="632" d="M30 893q0 10 12 25q35 43 60 122q18 68 18 115v41q0 35 33 35h88q33 0 33 -35v-41q0 -82 -43 -168q-45 -92 -121 -141q-8 -6 -17 -6q-10 0 -22 10l-25 16q-16 15 -16 27zM294 893q0 10 12 25q37 43 64 122q25 72 25 115v41q0 35 34 35h86q33 0 33 -35v-41q0 -80 -48 -169 t-126 -140q-8 -6 -16 -6q-11 0 -23 10l-24 16q-17 15 -17 27z" />
<glyph unicode="&#x2000;" horiz-adv-x="729" />
<glyph unicode="&#x2001;" horiz-adv-x="1458" />
<glyph unicode="&#x2002;" horiz-adv-x="729" />
<glyph unicode="&#x2003;" horiz-adv-x="1458" />
<glyph unicode="&#x2004;" horiz-adv-x="486" />
<glyph unicode="&#x2005;" horiz-adv-x="364" />
<glyph unicode="&#x2006;" horiz-adv-x="243" />
<glyph unicode="&#x2007;" horiz-adv-x="243" />
<glyph unicode="&#x2008;" horiz-adv-x="182" />
<glyph unicode="&#x2009;" horiz-adv-x="291" />
<glyph unicode="&#x200a;" horiz-adv-x="81" />
<glyph unicode="&#x200c;" d="M83 712q0 110 77 187t185 77q111 0 187.5 -77t76.5 -187q0 -111 -76.5 -187t-187.5 -76q-108 0 -185 77t-77 186zM155 712q0 -78 55 -134.5t135 -56.5t135.5 56.5t55.5 134.5q0 82 -55.5 137t-135.5 55t-135 -55t-55 -137z" />
<glyph unicode="&#x2010;" horiz-adv-x="786" d="M88 446v84q0 23 23 23h565q22 0 22 -23v-84q0 -22 -22 -22h-565q-23 0 -23 22z" />
<glyph unicode="&#x2011;" horiz-adv-x="786" d="M88 446v84q0 23 23 23h565q22 0 22 -23v-84q0 -22 -22 -22h-565q-23 0 -23 22z" />
<glyph unicode="&#x2012;" horiz-adv-x="786" d="M88 446v84q0 23 23 23h565q22 0 22 -23v-84q0 -22 -22 -22h-565q-23 0 -23 22z" />
<glyph unicode="&#x2013;" horiz-adv-x="786" d="M88 446v84q0 23 23 23h565q22 0 22 -23v-84q0 -22 -22 -22h-565q-23 0 -23 22z" />
<glyph unicode="&#x2014;" horiz-adv-x="1100" d="M88 446v84q0 23 34 23h844q34 0 34 -23v-84q0 -22 -34 -22h-844q-34 0 -34 22z" />
<glyph unicode="&#x2018;" horiz-adv-x="337" d="M30 874v41q0 80 48 169.5t126 140.5q8 6 16 6q11 0 23 -10l25 -17q16 -14 16 -26q0 -11 -12 -25q-35 -43 -60 -123q-18 -67 -18 -115v-41q0 -34 -33 -34h-98q-33 0 -33 34z" />
<glyph unicode="&#x2019;" horiz-adv-x="337" d="M30 893q0 10 12 25q35 43 60 122q18 68 18 115v41q0 35 33 35h98q33 0 33 -35v-41q0 -80 -48 -169t-126 -140q-8 -6 -17 -6q-10 0 -22 10l-25 16q-16 15 -16 27z" />
<glyph unicode="&#x201a;" horiz-adv-x="337" d="M30 -147q0 10 12 25q35 43 60 122q18 68 18 115v41q0 35 33 35h98q33 0 33 -35v-41q0 -80 -48 -169t-126 -140q-8 -6 -17 -6q-10 0 -22 10l-25 16q-16 15 -16 27z" />
<glyph unicode="&#x201c;" horiz-adv-x="632" d="M30 874v41q0 80 48 169.5t126 140.5q8 6 16 6q11 0 23 -10l25 -17q16 -14 16 -26q0 -11 -12 -25q-37 -43 -64 -123q-24 -72 -24 -115v-41q0 -34 -35 -34h-86q-33 0 -33 34zM304 874v41q0 82 43 168q45 93 121 142q8 6 17 6q10 0 22 -10l25 -17q16 -14 16 -26 q0 -11 -12 -25q-35 -43 -60 -123q-18 -67 -18 -115v-41q0 -34 -33 -34h-88q-33 0 -33 34z" />
<glyph unicode="&#x201d;" horiz-adv-x="632" d="M30 893q0 10 12 25q35 43 60 122q18 68 18 115v41q0 35 33 35h88q33 0 33 -35v-41q0 -82 -43 -168q-45 -92 -121 -141q-8 -6 -17 -6q-10 0 -22 10l-25 16q-16 15 -16 27zM294 893q0 10 12 25q37 43 64 122q25 72 25 115v41q0 35 34 35h86q33 0 33 -35v-41q0 -80 -48 -169 t-126 -140q-8 -6 -16 -6q-11 0 -23 10l-24 16q-17 15 -17 27z" />
<glyph unicode="&#x201e;" horiz-adv-x="632" d="M30 -147q0 10 12 25q35 43 60 122q18 68 18 115v41q0 35 33 35h88q33 0 33 -35v-41q0 -82 -43 -168q-45 -92 -121 -141q-8 -6 -17 -6q-10 0 -22 10l-25 16q-16 15 -16 27zM294 -147q0 10 12 25q37 43 64 122q25 72 25 115v41q0 35 34 35h86q33 0 33 -35v-41 q0 -80 -48 -169t-126 -140q-8 -6 -16 -6q-11 0 -23 10l-24 16q-17 15 -17 27z" />
<glyph unicode="&#x2020;" horiz-adv-x="874" d="M86 780q0 37 25.5 60.5t62.5 23.5q21 0 39 -4q10 -4 90 -39q51 -22 113 -24q0 53 -31 125q-47 110 -47 165q0 46 26.5 79.5t69.5 33.5q41 0 67.5 -35t26.5 -78q0 -47 -47 -157q-30 -74 -32 -133q59 4 112 24q84 33 100.5 38t36.5 5q90 0 90 -84q0 -37 -25.5 -59.5 t-62.5 -22.5q-45 0 -141 39q-55 25 -110 29q6 -139 86 -203q-54 -196 -70 -459q-8 -96 -16 -464h-33q-2 372 -27 600q-18 170 -59 323q78 68 86 203q-56 -6 -113 -31q-90 -37 -131 -37q-86 0 -86 82z" />
<glyph unicode="&#x2021;" horiz-adv-x="874" d="M118 852q0 74 74 74q40 0 112 -29q66 -27 115 -31q-2 37 -8 56q-11 41 -39 108q-8 25 -19 53q-4 13 -4 37q0 97 86 97q84 0 84 -99q0 -41 -35 -121q-26 -61 -32 -131q57 4 120.5 32t106.5 28q76 0 76 -74q0 -76 -80 -76q-41 0 -107 27q-43 18 -57 22q-20 6 -59 9 q12 -89 82 -146q-82 -117 -82 -274q0 -150 82 -269q-70 -57 -82 -145q49 8 110 33q72 28 115 28q78 0 78 -73q0 -80 -78 -80q-35 0 -109 33q-59 24 -116 28q6 -37 28 -116q43 -95 43 -142q0 -37 -23.5 -63.5t-62.5 -26.5q-37 0 -61.5 27.5t-24.5 66.5q0 33 41 140 q21 55 27 114q-62 -4 -126.5 -32.5t-94.5 -28.5q-78 0 -78 76q0 77 82 77q33 0 95 -26.5t122 -28.5q-14 84 -84 139q84 111 84 279q0 174 -84 264q67 51 84 146q-51 -3 -125 -33q-59 -25 -100 -25q-76 0 -76 76z" />
<glyph unicode="&#x2022;" horiz-adv-x="612" d="M96 580q0 90 61.5 151.5t153.5 61.5q90 0 151.5 -61.5t61.5 -151.5q0 -91 -62.5 -153t-150.5 -62q-90 0 -152.5 62t-62.5 153z" />
<glyph unicode="&#x2026;" horiz-adv-x="1318" d="M10 133l173 174l173 -174l-173 -173zM452 133l173 174l173 -174l-173 -173zM890 133l173 174l173 -174l-173 -173z" />
<glyph unicode="&#x202f;" horiz-adv-x="291" />
<glyph unicode="&#x2030;" horiz-adv-x="2048" d="M65 1022q0 229 145 321q68 43 141 43q174 0 252 -176q39 -84 39 -188q0 -143 -70 -246q-79 -117 -217 -117q-170 0 -252 172q-38 84 -38 191zM159 -55l970 1441h91l-973 -1441h-88zM224 1018q0 -309 129 -309t129 321q0 303 -135 303q-69 0 -100 -102q-23 -74 -23 -213z M736 307q0 232 152 324q72 43 139 43q168 0 250 -176q39 -84 39 -187q0 -227 -150 -321q-69 -45 -141 -45q-135 0 -215 118q-74 105 -74 244zM896 299q0 -299 127 -299q131 0 131 303q0 318 -131 318q-74 0 -106 -111q-21 -61 -21 -211zM1406 301q0 246 147 332 q72 41 138 41q77 0 147 -48t105 -122q36 -82 36 -185q0 -237 -143 -327q-72 -47 -143 -47q-80 0 -150 51q-63 45 -98 121q-39 84 -39 184zM1566 303q0 -303 129 -303q71 0 106 115q19 63 19 215q0 291 -129 291q-125 0 -125 -318z" />
<glyph unicode="&#x2039;" horiz-adv-x="681" d="M118 465l387 469h57l-244 -469l244 -473h-57z" />
<glyph unicode="&#x203a;" horiz-adv-x="681" d="M114 -8l243 471l-243 471h57l395 -471l-395 -471h-57z" />
<glyph unicode="&#x205f;" horiz-adv-x="364" />
<glyph unicode="&#x20ac;" horiz-adv-x="1024" d="M-22 575l23 78h74v17q0 30 2 67h-99l23 78h84q35 240 164 393q147 176 375 176q170 0 340 -88v-299h-39q-27 322 -301 322q-166 0 -258 -180q-66 -127 -86 -324h591l-22 -78h-576q-2 -43 -2 -84h551l-22 -78h-527q7 -190 72 -329q88 -187 252 -187q133 0 223 70 q55 41 137 156l31 -21q-86 -135 -156 -192q-114 -97 -276 -97q-231 0 -356 193q-103 156 -121 407h-101z" />
<glyph unicode="&#x2122;" horiz-adv-x="1" />
<glyph unicode="&#x25fc;" horiz-adv-x="905" d="M0 0v905h905v-905h-905z" />
<glyph unicode="&#xfb1d;" d="M83 712q0 110 77 187t185 77q111 0 187.5 -77t76.5 -187q0 -111 -76.5 -187t-187.5 -76q-108 0 -185 77t-77 186zM155 712q0 -78 55 -134.5t135 -56.5t135.5 56.5t55.5 134.5q0 82 -55.5 137t-135.5 55t-135 -55t-55 -137z" />
<glyph unicode="&#xfb1e;" d="M83 712q0 110 77 187t185 77q111 0 187.5 -77t76.5 -187q0 -111 -76.5 -187t-187.5 -76q-108 0 -185 77t-77 186zM155 712q0 -78 55 -134.5t135 -56.5t135.5 56.5t55.5 134.5q0 82 -55.5 137t-135.5 55t-135 -55t-55 -137z" />
<glyph unicode="&#xfb1f;" d="M83 712q0 110 77 187t185 77q111 0 187.5 -77t76.5 -187q0 -111 -76.5 -187t-187.5 -76q-108 0 -185 77t-77 186zM155 712q0 -78 55 -134.5t135 -56.5t135.5 56.5t55.5 134.5q0 82 -55.5 137t-135.5 55t-135 -55t-55 -137z" />
<glyph unicode="&#xfb20;" d="M83 712q0 110 77 187t185 77q111 0 187.5 -77t76.5 -187q0 -111 -76.5 -187t-187.5 -76q-108 0 -185 77t-77 186zM155 712q0 -78 55 -134.5t135 -56.5t135.5 56.5t55.5 134.5q0 82 -55.5 137t-135.5 55t-135 -55t-55 -137z" />
<glyph unicode="&#xfb21;" d="M83 712q0 110 77 187t185 77q111 0 187.5 -77t76.5 -187q0 -111 -76.5 -187t-187.5 -76q-108 0 -185 77t-77 186zM155 712q0 -78 55 -134.5t135 -56.5t135.5 56.5t55.5 134.5q0 82 -55.5 137t-135.5 55t-135 -55t-55 -137z" />
<glyph unicode="&#xfb22;" d="M83 712q0 110 77 187t185 77q111 0 187.5 -77t76.5 -187q0 -111 -76.5 -187t-187.5 -76q-108 0 -185 77t-77 186zM155 712q0 -78 55 -134.5t135 -56.5t135.5 56.5t55.5 134.5q0 82 -55.5 137t-135.5 55t-135 -55t-55 -137z" />
<glyph unicode="&#xfb23;" d="M83 712q0 110 77 187t185 77q111 0 187.5 -77t76.5 -187q0 -111 -76.5 -187t-187.5 -76q-108 0 -185 77t-77 186zM155 712q0 -78 55 -134.5t135 -56.5t135.5 56.5t55.5 134.5q0 82 -55.5 137t-135.5 55t-135 -55t-55 -137z" />
<glyph unicode="&#xfb24;" d="M83 712q0 110 77 187t185 77q111 0 187.5 -77t76.5 -187q0 -111 -76.5 -187t-187.5 -76q-108 0 -185 77t-77 186zM155 712q0 -78 55 -134.5t135 -56.5t135.5 56.5t55.5 134.5q0 82 -55.5 137t-135.5 55t-135 -55t-55 -137z" />
<glyph unicode="&#xfb25;" d="M83 712q0 110 77 187t185 77q111 0 187.5 -77t76.5 -187q0 -111 -76.5 -187t-187.5 -76q-108 0 -185 77t-77 186zM155 712q0 -78 55 -134.5t135 -56.5t135.5 56.5t55.5 134.5q0 82 -55.5 137t-135.5 55t-135 -55t-55 -137z" />
<glyph unicode="&#xfb26;" d="M83 712q0 110 77 187t185 77q111 0 187.5 -77t76.5 -187q0 -111 -76.5 -187t-187.5 -76q-108 0 -185 77t-77 186zM155 712q0 -78 55 -134.5t135 -56.5t135.5 56.5t55.5 134.5q0 82 -55.5 137t-135.5 55t-135 -55t-55 -137z" />
<glyph unicode="&#xfb27;" d="M83 712q0 110 77 187t185 77q111 0 187.5 -77t76.5 -187q0 -111 -76.5 -187t-187.5 -76q-108 0 -185 77t-77 186zM155 712q0 -78 55 -134.5t135 -56.5t135.5 56.5t55.5 134.5q0 82 -55.5 137t-135.5 55t-135 -55t-55 -137z" />
<glyph unicode="&#xfb28;" d="M83 712q0 110 77 187t185 77q111 0 187.5 -77t76.5 -187q0 -111 -76.5 -187t-187.5 -76q-108 0 -185 77t-77 186zM155 712q0 -78 55 -134.5t135 -56.5t135.5 56.5t55.5 134.5q0 82 -55.5 137t-135.5 55t-135 -55t-55 -137z" />
<glyph unicode="&#xfb29;" horiz-adv-x="786" d="M59 451v84q0 22 23 22h245v240q0 22 25 22h86q22 0 22 -22v-240h244q23 0 23 -22v-84q0 -23 -23 -23h-622q-23 0 -23 23z" />
<glyph unicode="&#xfb2a;" horiz-adv-x="1202" d="M79 946q0 15 20 23l86 35q17 6 25 6q10 0 23 -17q59 -86 59 -313v-215q207 37 207 278q0 37 -12.5 106t-12.5 97q0 19 17 25l98 33q12 2 20 2q19 0 29 -39q27 -88 27 -219q0 -132 -86 -234q-99 -119 -287 -149q2 -105 66 -183q73 -88 192 -88q358 0 358 455 q0 235 -32 393l-4 19q0 12 16 16l100 29q13 4 19 4q18 0 24 -25q41 -143 41 -416q0 -286 -149 -444q-142 -152 -383 -152q-408 0 -408 527v166q0 190 -49 266q-4 8 -4 14zM803 1220q0 33 26 58.5t60 25.5q39 0 62.5 -23.5t23.5 -60.5q0 -35 -25.5 -60.5t-60.5 -25.5 q-34 0 -60 25.5t-26 60.5z" />
<glyph unicode="&#xfb2b;" horiz-adv-x="1202" d="M79 946q0 15 20 23l86 35q17 6 25 6q10 0 23 -17q59 -86 59 -313v-215q207 37 207 278q0 37 -12.5 106t-12.5 97q0 19 17 25l98 33q12 2 20 2q19 0 29 -39q27 -88 27 -219q0 -132 -86 -234q-99 -119 -287 -149q2 -105 66 -183q73 -88 192 -88q358 0 358 455 q0 235 -32 393l-4 19q0 12 16 16l100 29q13 4 19 4q18 0 24 -25q41 -143 41 -416q0 -286 -149 -444q-142 -152 -383 -152q-408 0 -408 527v166q0 190 -49 266q-4 8 -4 14zM103 1220q0 33 26 58.5t60 25.5q39 0 62.5 -23.5t23.5 -60.5q0 -35 -25.5 -60.5t-60.5 -25.5 q-34 0 -60 25.5t-26 60.5z" />
<glyph unicode="&#xfb2c;" horiz-adv-x="1202" d="M79 946q0 15 20 23l86 35q17 6 25 6q10 0 23 -17q59 -86 59 -313v-215q207 37 207 278q0 37 -12.5 106t-12.5 97q0 19 17 25l98 33q12 2 20 2q19 0 29 -39q27 -88 27 -219q0 -132 -86 -234q-99 -119 -287 -149q2 -105 66 -183q73 -88 192 -88q358 0 358 455 q0 235 -32 393l-4 19q0 12 16 16l100 29q13 4 19 4q18 0 24 -25q41 -143 41 -416q0 -286 -149 -444q-142 -152 -383 -152q-408 0 -408 527v166q0 190 -49 266q-4 8 -4 14zM660 466q0 33 27 58.5t59 25.5q37 0 61.5 -23.5t24.5 -60.5q0 -35 -25.5 -60.5t-60.5 -25.5 t-60.5 25.5t-25.5 60.5zM803 1220q0 33 26 58.5t60 25.5q39 0 62.5 -23.5t23.5 -60.5q0 -35 -25.5 -60.5t-60.5 -25.5q-34 0 -60 25.5t-26 60.5z" />
<glyph unicode="&#xfb2d;" horiz-adv-x="1202" d="M79 946q0 15 20 23l86 35q17 6 25 6q10 0 23 -17q59 -86 59 -313v-215q207 37 207 278q0 37 -12.5 106t-12.5 97q0 19 17 25l98 33q12 2 20 2q19 0 29 -39q27 -88 27 -219q0 -132 -86 -234q-99 -119 -287 -149q2 -105 66 -183q73 -88 192 -88q358 0 358 455 q0 235 -32 393l-4 19q0 12 16 16l100 29q13 4 19 4q18 0 24 -25q41 -143 41 -416q0 -286 -149 -444q-142 -152 -383 -152q-408 0 -408 527v166q0 190 -49 266q-4 8 -4 14zM103 1220q0 33 26 58.5t60 25.5q39 0 62.5 -23.5t23.5 -60.5q0 -35 -25.5 -60.5t-60.5 -25.5 q-34 0 -60 25.5t-26 60.5zM660 466q0 33 27 58.5t59 25.5q37 0 61.5 -23.5t24.5 -60.5q0 -35 -25.5 -60.5t-60.5 -25.5t-60.5 25.5t-25.5 60.5z" />
<glyph unicode="&#xfb2e;" d="M83 712q0 110 77 187t185 77q111 0 187.5 -77t76.5 -187q0 -111 -76.5 -187t-187.5 -76q-108 0 -185 77t-77 186zM155 712q0 -78 55 -134.5t135 -56.5t135.5 56.5t55.5 134.5q0 82 -55.5 137t-135.5 55t-135 -55t-55 -137z" />
<glyph unicode="&#xfb2f;" d="M83 712q0 110 77 187t185 77q111 0 187.5 -77t76.5 -187q0 -111 -76.5 -187t-187.5 -76q-108 0 -185 77t-77 186zM155 712q0 -78 55 -134.5t135 -56.5t135.5 56.5t55.5 134.5q0 82 -55.5 137t-135.5 55t-135 -55t-55 -137z" />
<glyph unicode="&#xfb30;" d="M83 712q0 110 77 187t185 77q111 0 187.5 -77t76.5 -187q0 -111 -76.5 -187t-187.5 -76q-108 0 -185 77t-77 186zM155 712q0 -78 55 -134.5t135 -56.5t135.5 56.5t55.5 134.5q0 82 -55.5 137t-135.5 55t-135 -55t-55 -137z" />
<glyph unicode="&#xfb31;" horiz-adv-x="897" d="M53 926q0 10 14 18q105 66 318 66q229 0 311 -131q64 -99 64 -330q0 -180 -21.5 -271.5t-77.5 -148.5h146q28 0 28 -27v-75q0 -27 -28 -27h-713q-33 0 -33 23v79q0 27 33 27h395q74 0 92 164q4 39 4 235q0 183 -30 256q-45 107 -180 107q-140 0 -240 -70q-6 -4 -14 -4 q-19 0 -25 12l-39 82q-4 11 -4 15zM210 469q0 33 27 58.5t59 25.5q37 0 61.5 -23.5t24.5 -60.5q0 -35 -25.5 -60.5t-60.5 -25.5t-60.5 25.5t-25.5 60.5z" />
<glyph unicode="&#xfb32;" horiz-adv-x="776" d="M30 14l4 13l43 108q2 8 12 8q11 0 37.5 -5t38.5 -5q115 0 281 213v334q0 92 -38 149.5t-108 57.5q-67 0 -141 -49q-4 -4 -10 -4q-10 0 -19 12l-47 84q-4 8 -4 14q0 12 21 23q73 37 211 37q149 0 227 -101q70 -88 70 -233v-246q0 -211 96 -344q10 -12 10 -21q0 -8 -14 -16 l-80 -51q-6 -4 -12 -4q-7 0 -11 4q-75 71 -133 248l-72 -99q-118 -161 -251 -161q-25 0 -62 8q-49 10 -49 26zM156 508q0 33 27 58.5t59 25.5q37 0 61.5 -23.5t24.5 -60.5q0 -35 -25.5 -60.5t-60.5 -25.5t-60.5 25.5t-25.5 60.5z" />
<glyph unicode="&#xfb33;" horiz-adv-x="923" d="M36 903v62q0 28 37 28h739q31 0 19 -32l-21 -62q-10 -29 -39 -29h-41q-45 0 -55 -84q-4 -26 -4 -155v-600q0 -31 -41 -31h-84q-41 0 -41 31v510q0 151 6 196q12 101 60 133h-506q-29 0 -29 33zM178 455q0 33 27 58.5t59 25.5q37 0 61.5 -23.5t24.5 -60.5 q0 -35 -25.5 -60.5t-60.5 -25.5t-60.5 25.5t-25.5 60.5z" />
<glyph unicode="&#xfb34;" horiz-adv-x="1019" d="M71 901q0 10 14 19q152 90 422 90q176 0 272.5 -90.5t96.5 -251.5v-633q0 -35 -35 -35h-90q-25 0 -32 6t-7 29v620q0 234 -227 234q-78 0 -174.5 -29t-151.5 -65q-6 -7 -12 -7q-10 0 -19 13l-53 86q-4 8 -4 14zM137 29v491q0 33 26 43l55 21q19 6 27 6q16 0 27 -27 q26 -78 26 -250v-282q0 -31 -39 -31h-84q-38 0 -38 29zM418 436q0 33 27 58.5t59 25.5q37 0 61.5 -23.5t24.5 -60.5q0 -35 -25.5 -60.5t-60.5 -25.5t-60.5 25.5t-25.5 60.5z" />
<glyph unicode="&#xfb35;" horiz-adv-x="448" d="M-72 466q0 33 27 58.5t59 25.5q37 0 61.5 -23.5t24.5 -60.5q0 -35 -25.5 -60.5t-60.5 -25.5t-60.5 25.5t-25.5 60.5zM92 948q0 17 23 25l82 31q14 6 22 6q12 0 23 -17q63 -90 63 -252v-706q0 -35 -35 -35h-90q-24 0 -30.5 6t-6.5 29v672q0 155 -47 229q-4 6 -4 12z" />
<glyph unicode="&#xfb36;" horiz-adv-x="634" d="M-14 442q0 33 27 58.5t59 25.5q37 0 61.5 -23.5t24.5 -60.5q0 -35 -25.5 -60.5t-60.5 -25.5t-60.5 25.5t-25.5 60.5zM40 883q0 6 2 12l18 74q7 22 25 22q33 0 101.5 -11t105.5 -11q35 0 104.5 7t102.5 7q24 0 28 -22l11 -64q4 -25 4 -14q0 -17 -21 -23q-98 -24 -131 -88 q-29 -55 -29 -188q0 -201 19 -545q0 -39 -14 -39h-105q-29 0 -31 14q-30 238 -30 512q0 238 127 318q-19 -4 -64 -4q-139 0 -203 22q-20 6 -20 21z" />
<glyph unicode="&#xfb38;" horiz-adv-x="1075" d="M73 948q0 17 23 25l81 31q15 6 23 6q12 0 23 -17q63 -90 63 -252v-292q0 -353 262 -353q98 0 162 70q88 96 88 317q0 391 -172 391q-51 0 -104 -45q-9 -8 -17 -8q-10 0 -20 15l-41 67q-6 10 -6 17q0 8 22 24q70 55 193 55q127 0 206 -81q113 -119 113 -429 q0 -243 -131 -385q-123 -131 -309 -131q-408 0 -408 471v263q0 155 -47 229q-4 6 -4 12zM460 460q0 33 27 58.5t59 25.5q37 0 61.5 -23.5t24.5 -60.5q0 -35 -25.5 -60.5t-60.5 -25.5t-60.5 25.5t-25.5 60.5z" />
<glyph unicode="&#xfb39;" horiz-adv-x="430" d="M-86 667q0 33 27 58.5t59 25.5q37 0 61.5 -23.5t24.5 -60.5q0 -35 -25.5 -60.5t-60.5 -25.5t-60.5 25.5t-25.5 60.5zM94 948q0 17 23 23l84 24q18 4 24 4q33 0 56 -106q12 -57 12 -131v-25l-6 -272q-2 -45 -41 -45h-78q-23 0 -27 8t-4 37l-6 260q-6 158 -33 209 q-4 6 -4 14z" />
<glyph unicode="&#xfb3a;" horiz-adv-x="874" d="M40 926q0 12 14 18q115 66 328 66q170 0 259 -81t89 -231v-723q0 -49 20.5 -143t20.5 -123q0 -20 -18 -26l-58 -25q-10 -6 -18 -6q-14 0 -23 12q-88 152 -88 393v629q0 199 -207 199q-120 0 -235 -62q-10 -4 -14 -4q-11 0 -17 10l-49 82q-4 9 -4 15zM219 512 q0 33 27 58.5t59 25.5q37 0 61.5 -23.5t24.5 -60.5q0 -35 -25.5 -60.5t-60.5 -25.5t-60.5 25.5t-25.5 60.5z" />
<glyph unicode="&#xfb3b;" horiz-adv-x="835" d="M40 45q0 2 10 23l39 75q6 13 19 13q6 0 10 -4q86 -68 190 -68q127 0 199 108.5t72 296.5q0 187 -72 292.5t-199 105.5q-100 0 -188 -60q-10 -6 -17 -6q-12 0 -16 13l-29 79q-12 31 -12 23q0 14 37 31q84 41 250 41q201 0 312.5 -138.5t111.5 -382.5q0 -227 -123 -372.5 t-311 -145.5q-205 0 -271 54q-12 10 -12 22zM209 469q0 33 27 58.5t59 25.5q37 0 61.5 -23.5t24.5 -60.5q0 -35 -25.5 -60.5t-60.5 -25.5t-60.5 25.5t-25.5 60.5z" />
<glyph unicode="&#xfb3c;" horiz-adv-x="860" d="M40 889v2v346q0 27 27 27h112q25 0 25 -29v-242h205q352 0 352 -340q0 -192 -146 -391q-137 -184 -327 -280q-8 -5 -19 -5q-12 0 -18 11l-43 63q-6 8 -6 15q0 6 20 20q361 231 361 555q0 229 -232 229h-293q-18 0 -18 19zM165 514q0 33 27 58.5t59 25.5q37 0 61.5 -23.5 t24.5 -60.5q0 -35 -25.5 -60.5t-60.5 -25.5t-60.5 25.5t-25.5 60.5z" />
<glyph unicode="&#xfb3e;" horiz-adv-x="1097" d="M81 958q0 11 23 19l90 31q4 2 8 2q26 0 57 -78q23 -55 33 -101q129 170 379 170q319 0 319 -507q0 -281 -90 -397.5t-246 -116.5q-118 0 -186 28q-20 6 -20 19q0 6 4 18l22 76q4 12 19 12q8 0 35.5 -11t37.5 -13q29 -7 62 -7q86 0 125 45q65 70 65 351q0 381 -219 381 q-174 0 -293 -193v-270q0 -250 -16 -381q-4 -35 -45 -35h-78q-37 0 -37 20q0 66 7 197t7 197v186q0 184 -59 342q-4 12 -4 16zM477 470q0 33 27 58.5t59 25.5q37 0 61.5 -23.5t24.5 -60.5q0 -35 -25.5 -60.5t-60.5 -25.5t-60.5 25.5t-25.5 60.5z" />
<glyph unicode="&#xfb40;" horiz-adv-x="659" d="M40 946q0 12 20 21q82 41 203 41q152 0 207 -95q45 -75 45 -241v-645q0 -27 -24 -27h-400q-24 0 -24 18v88q0 23 20 23h12h254v590q0 168 -104 168q-41 0 -89 -28l-48 -28q-15 0 -23 11l-45 88q-4 10 -4 16zM104 479q0 33 27 58.5t59 25.5q37 0 61.5 -23.5t24.5 -60.5 q0 -35 -25.5 -60.5t-60.5 -25.5t-60.5 25.5t-25.5 60.5z" />
<glyph unicode="&#xfb41;" horiz-adv-x="1103" d="M81 903q0 12 16 21q148 77 439 77q227 0 350 -129q115 -122 115 -337q0 -234 -111 -390q-123 -172 -340 -172q-199 0 -307.5 120t-108.5 349v154q0 192 -49 293q-4 8 -4 14zM274 840q30 -54 30 -252v-137q0 -353 250 -353q275 0 275 437q0 350 -322 350q-135 0 -233 -45z M479 469q0 33 27 58.5t59 25.5q37 0 61.5 -23.5t24.5 -60.5q0 -35 -25.5 -60.5t-60.5 -25.5t-60.5 25.5t-25.5 60.5z" />
<glyph unicode="&#xfb43;" horiz-adv-x="1028" d="M73 905q0 15 18 23q148 73 400 73q186 0 289.5 -109.5t103.5 -305.5v-611q0 -157 31 -256q2 -8 2 -14q0 -14 -15 -20l-61 -27q-10 -4 -20 -4q-15 0 -21 12q-80 135 -80 393v512q0 164 -64.5 237t-211.5 73q-115 0 -160 -29v-186q0 -58 41 -106t102 -54q31 -2 13 -35 l-37 -70q-4 -8 -39 -6q-115 8 -180.5 72.5t-65.5 169.5v141q0 43 -10 66l-31 49q-4 6 -4 12zM488 460q0 33 27 58.5t59 25.5q37 0 61.5 -23.5t24.5 -60.5q0 -35 -25.5 -60.5t-60.5 -25.5t-60.5 25.5t-25.5 60.5z" />
<glyph unicode="&#xfb44;" horiz-adv-x="1050" d="M79 905q0 15 18 23q148 73 381 73q213 0 336 -122q133 -134 133 -385q0 -215 -112 -355q-133 -162 -381 -162q-236 0 -336 72q-19 14 -19 31q0 6 5 10l63 72q12 14 23 14q8 0 20 -10q94 -72 262 -72q139 0 220 101.5t81 293.5q0 392 -323 392q-115 0 -160 -29v-186 q0 -58 41 -106t102 -54q31 -2 13 -35l-37 -70q-4 -8 -39 -6q-115 8 -180.5 72.5t-65.5 169.5v141q0 43 -10 66l-31 49q-4 6 -4 12zM521 476q0 33 27 58.5t59 25.5q37 0 61.5 -23.5t24.5 -60.5q0 -35 -25.5 -60.5t-60.5 -25.5t-60.5 25.5t-25.5 60.5z" />
<glyph unicode="&#xfb46;" horiz-adv-x="952" d="M40 954q0 11 27 19l90 26q12 5 20 5q17 0 27 -21q149 -301 315 -504q135 105 135 248q0 96 -45 213q-4 10 -4 16q0 15 17 19l98 26q10 3 18 3q23 0 37 -29q45 -92 45 -189q0 -213 -241 -383q133 -178 200 -247q35 -35 35 -64v-61q0 -31 -29 -31h-675q-29 0 -29 20v84 q0 25 29 25h508q-463 535 -568 797q-10 26 -10 28zM85 435q0 33 27 58.5t59 25.5q37 0 61.5 -23.5t24.5 -60.5q0 -35 -25.5 -60.5t-60.5 -25.5t-60.5 25.5t-25.5 60.5z" />
<glyph unicode="&#xfb47;" horiz-adv-x="1064" d="M67 907q0 11 16 19q166 82 424 82q242 0 365 -131q102 -109 102 -285q0 -174 -125 -340q-110 -146 -288 -246q-9 -4 -19 -4q-12 0 -18 10l-37 51q-21 29 8 48q129 86 211 200q92 133 92 269q0 139 -82 223t-237 84q-105 0 -215 -45q49 -94 49 -338v-752q0 -28 -25 -41 l-88 -47q-22 -12 -33 -12q-16 0 -16 22v926q0 100 -31 184q-6 21 -49 111q-4 6 -4 12zM466 534q0 33 27 58.5t59 25.5q37 0 61.5 -23.5t24.5 -60.5q0 -35 -25.5 -60.5t-60.5 -25.5t-60.5 25.5t-25.5 60.5z" />
<glyph unicode="&#xfb48;" horiz-adv-x="884" d="M40 926q0 10 14 18q107 66 330 66q162 0 259 -92.5t97 -260.5v-622q0 -35 -34 -35h-91q-24 0 -30 6t-6 29v610q0 248 -228 248q-116 0 -229 -72q-6 -4 -14 -4q-15 0 -21 12l-43 82q-4 11 -4 15zM243 454q0 33 27 58.5t59 25.5q37 0 61.5 -23.5t24.5 -60.5 q0 -35 -25.5 -60.5t-60.5 -25.5t-60.5 25.5t-25.5 60.5z" />
<glyph unicode="&#xfb49;" horiz-adv-x="1202" d="M79 946q0 15 20 23l86 35q17 6 25 6q10 0 23 -17q59 -86 59 -313v-215q207 37 207 278q0 37 -12.5 106t-12.5 97q0 19 17 25l98 33q12 2 20 2q19 0 29 -39q27 -88 27 -219q0 -132 -86 -234q-99 -119 -287 -149q2 -105 66 -183q73 -88 192 -88q358 0 358 455 q0 235 -32 393l-4 19q0 12 16 16l100 29q13 4 19 4q18 0 24 -25q41 -143 41 -416q0 -286 -149 -444q-142 -152 -383 -152q-408 0 -408 527v166q0 190 -49 266q-4 8 -4 14zM660 466q0 33 27 58.5t59 25.5q37 0 61.5 -23.5t24.5 -60.5q0 -35 -25.5 -60.5t-60.5 -25.5 t-60.5 25.5t-25.5 60.5z" />
<glyph unicode="&#xfb4a;" horiz-adv-x="1091" d="M20 41q0 14 23 18q143 31 143 172v543q0 43 -19 76q-4 6 -47 63q-6 7 -6 13q0 16 19 22q180 60 422 60q182 0 287.5 -82t105.5 -248v-643q0 -35 -35 -35h-90q-25 0 -31 6t-6 29v631q0 223 -248 223q-110 0 -205 -29q15 -51 15 -186v-402q0 -122 -58 -200 q-67 -97 -192 -115q-37 -6 -27 -6q-16 0 -20 12l-25 64q-6 16 -6 14zM484 489q0 33 27 58.5t59 25.5q37 0 61.5 -23.5t24.5 -60.5q0 -35 -25.5 -60.5t-60.5 -25.5t-60.5 25.5t-25.5 60.5z" />
<glyph unicode="&#xfb4b;" horiz-adv-x="448" d="M92 948q0 17 23 25l81 31q15 6 23 6q12 0 23 -17q63 -90 63 -252v-706q0 -35 -35 -35h-90q-25 0 -31 6t-6 29v672q0 155 -47 229q-4 6 -4 12zM114 1220q0 33 26 58.5t60 25.5q39 0 62.5 -23.5t23.5 -60.5q0 -35 -25.5 -60.5t-60.5 -25.5q-34 0 -60 25.5t-26 60.5z" />
<glyph unicode="&#xfb4c;" d="M83 712q0 110 77 187t185 77q111 0 187.5 -77t76.5 -187q0 -111 -76.5 -187t-187.5 -76q-108 0 -185 77t-77 186zM155 712q0 -78 55 -134.5t135 -56.5t135.5 56.5t55.5 134.5q0 82 -55.5 137t-135.5 55t-135 -55t-55 -137z" />
</font>
</defs>
</svg>
